<svg xmlns="http://www.w3.org/2000/svg" xmlns:xlink="http://www.w3.org/1999/xlink" width="1080" zoomAndPan="magnify" viewBox="0 0 810 1012.49997" height="1350" preserveAspectRatio="xMidYMid meet" version="1.0"><defs><clipPath id="412ad94f8e"><path d="M 0.199219 0 L 809.800781 0 L 809.800781 1012 L 0.199219 1012 Z M 0.199219 0 " clip-rule="nonzero"/></clipPath><clipPath id="e99308d372"><path d="M 90 624 L 505 624 L 505 831.792969 L 90 831.792969 Z M 90 624 " clip-rule="nonzero"/></clipPath><clipPath id="e1f7289b4f"><path d="M 500 213 L 809.800781 213 L 809.800781 398 L 500 398 Z M 500 213 " clip-rule="nonzero"/></clipPath><clipPath id="6b2fb6ffcc"><path d="M 0.199219 501 L 195 501 L 195 624 L 0.199219 624 Z M 0.199219 501 " clip-rule="nonzero"/></clipPath><clipPath id="ac8b0ccc19"><rect x="0" width="810" y="0" height="1012"/></clipPath></defs><g clip-path="url(#412ad94f8e)"><g transform="matrix(1, 0, 0, 1, 0.000000000000000028, 0)"><g clip-path="url(#ac8b0ccc19)"><path fill="#e0c26f" d="M 677.757812 573.542969 C 677.214844 572.558594 676.707031 571.566406 676.230469 570.925781 C 674.09375 568.050781 671.675781 565.398438 668.996094 563.027344 C 656.664062 552.101562 640.851562 545.90625 624.300781 546.636719 C 602.335938 547.609375 578.597656 561.835938 575.027344 585.070312 C 572.195312 603.511719 581.753906 626.125 597.996094 635.949219 C 605.941406 640.753906 616.449219 641.027344 626.175781 638.085938 C 635.753906 635.1875 644.488281 629.191406 649.175781 621.835938 C 661.085938 603.109375 653.738281 575.746094 629.691406 572.605469 C 625.40625 572.042969 621.003906 572.378906 616.90625 573.832031 C 604.941406 578.078125 598.210938 591.171875 604.132812 603.023438 C 607.179688 609.117188 613.273438 612.714844 619.699219 614.167969 C 620.09375 614.261719 625.78125 615.039062 626.898438 615.066406 C 630.320312 615.152344 630.535156 611.695312 630.46875 611.214844 C 630.214844 609.480469 628.667969 608.246094 626.945312 608.347656 C 626.148438 608.253906 621.480469 607.703125 621.179688 607.636719 C 616.683594 606.613281 612.269531 604.289062 610.132812 600.027344 C 606.074219 591.910156 610.949219 583.0625 619.148438 580.148438 C 622.242188 579.054688 625.585938 578.828125 628.828125 579.25 C 647.742188 581.722656 652.886719 603.503906 643.523438 618.234375 C 639.605469 624.382812 632.222656 629.257812 624.238281 631.675781 C 616.382812 634.046875 607.882812 634.09375 601.464844 630.210938 C 587.386719 621.695312 579.195312 602.070312 581.652344 586.089844 C 584.746094 566.007812 605.613281 554.179688 624.601562 553.335938 C 639.398438 552.679688 653.511719 558.277344 664.542969 568.039062 C 666.886719 570.113281 668.984375 572.417969 670.851562 574.917969 C 671.339844 575.585938 671.84375 576.757812 672.453125 577.742188 C 673.222656 578.976562 674.160156 579.980469 675.105469 580.515625 C 675.921875 580.972656 677.25 581.265625 678.863281 580.65625 C 680.558594 580.019531 683.539062 577.648438 684.261719 577.273438 C 689.527344 574.574219 695.207031 573.785156 701.082031 573.917969 C 725.460938 574.480469 750.546875 586.035156 762.910156 607.757812 C 763.976562 609.640625 765.671875 612.539062 766.589844 615.472656 C 767.199219 617.4375 767.726562 619.464844 766.449219 620.832031 C 765.542969 621.796875 764.210938 622.265625 762.851562 622.640625 C 760.941406 623.164062 758.925781 623.4375 757.230469 623.792969 C 750.164062 625.273438 742.742188 626.988281 736.613281 630.972656 C 727.832031 636.6875 721.375 645.085938 714.570312 653.050781 C 708.347656 660.34375 701.824219 667.285156 692.339844 670.792969 C 686.792969 672.84375 680.699219 673.292969 674.878906 672.28125 C 672.976562 671.945312 670.589844 670.988281 668.3125 670.613281 C 666.054688 670.257812 663.867188 670.40625 662.003906 671.382812 C 659.90625 672.480469 658.207031 674.304688 656.785156 676.472656 C 655.171875 678.925781 653.945312 681.851562 652.464844 683.929688 C 648.210938 689.902344 641.199219 695.1875 633.785156 696.179688 C 631.949219 696.421875 630.65625 698.109375 630.898438 699.9375 C 631.144531 701.773438 632.832031 703.066406 634.667969 702.824219 C 643.851562 701.597656 652.660156 695.214844 657.925781 687.820312 C 659.230469 685.992188 660.363281 683.546875 661.695312 681.277344 C 662.632812 679.667969 663.617188 678.101562 665.097656 677.332031 C 665.988281 676.863281 667.074219 677.164062 668.160156 677.417969 C 670.128906 677.875 672.097656 678.597656 673.726562 678.886719 C 680.710938 680.097656 688.011719 679.542969 694.664062 677.078125 C 705.273438 673.152344 712.703125 665.5625 719.667969 657.410156 C 726.058594 649.921875 732.027344 641.957031 740.265625 636.59375 C 745.710938 633.0625 752.335938 631.664062 758.597656 630.351562 C 760.835938 629.882812 763.574219 629.519531 766.011719 628.675781 C 768.074219 627.964844 769.9375 626.921875 771.34375 625.40625 C 773.742188 622.847656 774.277344 619.398438 773.5625 615.742188 C 772.757812 611.582031 770.265625 607.128906 768.738281 604.449219 C 755.214844 580.683594 727.894531 567.824219 701.242188 567.214844 C 694.234375 567.058594 687.484375 568.085938 681.207031 571.3125 C 680.792969 571.519531 679.015625 572.699219 677.757812 573.542969 Z M 677.757812 573.542969 " fill-opacity="1" fill-rule="evenodd"/><path fill="#e0c26f" d="M 589.308594 665.375 C 587.863281 665.382812 586.535156 666.339844 586.113281 667.8125 C 585.71875 669.199219 586.160156 670.109375 586.535156 670.6875 C 587.03125 671.449219 587.761719 672 588.820312 672.1875 C 589.222656 672.253906 589.757812 672.273438 590.386719 672.105469 C 590.601562 672.046875 591.117188 671.832031 591.4375 671.691406 C 591.933594 671.710938 592.429688 671.824219 592.90625 671.972656 C 595.324219 672.722656 597.753906 674.148438 599.617188 675.84375 C 604.585938 680.339844 607.433594 688.570312 603.007812 694.277344 C 599.796875 698.429688 595.175781 699.488281 590.582031 698.824219 C 585.503906 698.089844 580.433594 695.34375 576.882812 691.953125 C 566.882812 682.414062 564.539062 666.882812 570.976562 654.652344 C 579.683594 638.140625 601.125 635.414062 614.660156 647.804688 C 626.121094 658.300781 631.554688 675.074219 630.402344 690.359375 C 629.886719 697.152344 627.742188 704.21875 623.300781 709.503906 C 618.847656 714.800781 612.089844 717.867188 605.585938 719.785156 C 590.621094 724.21875 572.222656 722.824219 558.53125 715.128906 C 552.992188 712.007812 547.78125 707.714844 543.773438 702.757812 C 542.542969 701.238281 541.53125 699.601562 540.492188 697.96875 C 540.183594 697.480469 539.355469 696.152344 538.609375 695.609375 C 537.828125 695.046875 536.996094 694.820312 536.207031 694.847656 C 535.441406 694.867188 534.289062 695.234375 533.125 696.085938 C 532.1875 696.777344 530.390625 698.390625 530.390625 698.390625 C 527.878906 699.722656 525.046875 700.351562 522.246094 700.695312 C 507.550781 702.5625 490.738281 698.691406 477.363281 692.722656 C 465.320312 687.351562 455.59375 678.71875 448.527344 667.613281 C 447.167969 665.488281 445.902344 663.285156 444.824219 661.007812 C 449.679688 661.375 454.601562 660.828125 459.34375 659.75 C 472.226562 656.808594 483.417969 650.632812 492.808594 641.375 C 501.710938 632.59375 509.855469 621.65625 521.53125 616.371094 C 526.667969 614.046875 531.792969 614.261719 537.175781 613.210938 C 543.304688 612.011719 547.585938 608.265625 551.054688 603.585938 C 554.050781 599.558594 556.40625 594.816406 559.132812 590.90625 C 563.648438 584.460938 570.976562 580.335938 578.894531 581.703125 C 580.714844 582.023438 582.449219 580.796875 582.765625 578.976562 C 583.085938 577.148438 581.859375 575.417969 580.039062 575.097656 C 569.515625 573.28125 559.648438 578.492188 553.640625 587.066406 C 550.949219 590.925781 548.625 595.613281 545.675781 599.59375 C 543.199219 602.933594 540.265625 605.769531 535.890625 606.632812 C 529.996094 607.785156 524.398438 607.710938 518.769531 610.269531 C 506.378906 615.875 497.550781 627.277344 488.09375 636.605469 C 479.613281 644.972656 469.5 650.558594 457.84375 653.21875 C 453.683594 654.167969 449.351562 654.652344 445.089844 654.308594 C 444.355469 654.242188 441.769531 653.660156 440.410156 653.867188 C 439.082031 654.0625 438.164062 654.699219 437.609375 655.421875 C 436.953125 656.273438 436.597656 657.503906 436.832031 658.925781 C 437.011719 660.070312 437.722656 661.523438 437.976562 662.113281 C 439.324219 665.289062 441.019531 668.308594 442.867188 671.214844 C 450.65625 683.433594 461.375 692.925781 474.636719 698.851562 C 489.070312 705.289062 507.230469 709.367188 523.089844 707.351562 C 526.742188 706.890625 530.40625 705.992188 533.660156 704.238281 C 534.023438 704.042969 534.839844 703.40625 535.609375 702.777344 C 536.527344 704.210938 537.472656 705.636719 538.5625 706.976562 C 543.085938 712.578125 548.972656 717.445312 555.25 720.96875 C 570.453125 729.515625 590.875 731.136719 607.488281 726.214844 C 615.210938 723.9375 623.140625 720.113281 628.425781 713.824219 C 633.765625 707.472656 636.464844 699.027344 637.085938 690.867188 C 638.386719 673.601562 632.128906 654.710938 619.183594 642.855469 C 602.402344 627.496094 575.839844 631.054688 565.046875 651.53125 C 557.230469 666.378906 560.117188 685.222656 572.261719 696.808594 C 576.75 701.097656 583.1875 704.53125 589.628906 705.457031 C 596.550781 706.460938 603.449219 704.652344 608.3125 698.382812 C 614.875 689.910156 611.492188 677.546875 604.125 670.875 C 601.546875 668.542969 598.222656 666.601562 594.902344 665.570312 C 593.527344 665.148438 592.074219 664.914062 590.640625 665.007812 C 590.347656 665.027344 589.796875 665.207031 589.308594 665.375 Z M 592.664062 669.140625 C 592.644531 669.300781 592.617188 669.46875 592.558594 669.648438 C 592.605469 669.480469 592.644531 669.3125 592.664062 669.140625 Z M 592.664062 669.140625 " fill-opacity="1" fill-rule="evenodd"/><path fill="#e0c26f" d="M 326.152344 598.769531 C 325.957031 598.152344 325.601562 596.972656 325.496094 596.429688 C 324.625 592.03125 324.878906 587.113281 326.722656 582.988281 C 328.9375 578.050781 333.011719 575.089844 337.679688 573.140625 C 342.84375 570.984375 348.738281 570.046875 354.050781 569.363281 C 368.351562 567.507812 382 565.070312 394.210938 556.851562 C 402.980469 550.9375 410.300781 543.066406 418.191406 536.167969 C 425.53125 529.757812 433.363281 524.210938 443.699219 522.429688 C 462.546875 519.167969 481.601562 528.378906 489.855469 545.820312 C 499.199219 565.574219 483.894531 587.550781 463.398438 591.253906 C 455.613281 592.667969 446.757812 591.226562 441.332031 585.097656 C 436.503906 579.644531 433.832031 570.261719 435.003906 562.089844 C 435.734375 557.011719 437.976562 552.371094 442.425781 549.699219 C 447.882812 546.421875 455.058594 547.96875 460.542969 551.667969 C 465.96875 555.332031 469.941406 561.265625 468.554688 567.574219 C 468.160156 569.382812 469.304688 571.171875 471.113281 571.566406 C 472.921875 571.957031 474.703125 570.816406 475.105469 569.007812 C 477.074219 560.046875 472.011719 551.332031 464.300781 546.109375 C 456.652344 540.949219 446.585938 539.382812 438.976562 543.957031 C 432.753906 547.6875 429.382812 554.03125 428.371094 561.132812 C 426.925781 571.238281 430.347656 582.800781 436.308594 589.539062 C 443.289062 597.429688 454.574219 599.671875 464.589844 597.851562 C 489.230469 593.402344 507.15625 566.699219 495.910156 542.953125 C 486.371094 522.785156 464.355469 512.054688 442.558594 515.820312 C 430.9375 517.828125 422.035156 523.910156 413.785156 531.117188 C 406.101562 537.835938 399.007812 545.539062 390.460938 551.292969 C 379.148438 558.914062 366.449219 560.992188 353.191406 562.707031 C 347.3125 563.476562 340.808594 564.574219 335.09375 566.953125 C 328.871094 569.558594 323.566406 573.65625 320.605469 580.242188 C 318.195312 585.613281 317.785156 592.003906 318.917969 597.738281 C 319.160156 598.949219 319.527344 600.75 320.265625 602.152344 C 321.101562 603.757812 322.375 604.917969 324.023438 605.378906 C 325.253906 605.722656 326.566406 605.648438 327.867188 605.273438 C 329.019531 604.945312 330.183594 604.335938 331.148438 603.933594 C 333.539062 602.921875 335.992188 602.125 338.515625 601.535156 C 345.617188 599.859375 353.003906 601.167969 359.195312 605.058594 C 365.261719 608.863281 370.160156 613.980469 375.214844 618.929688 C 380.6875 624.289062 386.320312 629.460938 393.421875 632.949219 C 403.535156 637.925781 416.703125 641.496094 428.070312 640.550781 C 431.003906 640.316406 433.710938 639.265625 436.4375 638.289062 C 438.433594 637.570312 440.441406 636.875 442.671875 637.054688 C 445.417969 637.277344 448.011719 638.515625 450.609375 639.789062 C 453.832031 641.363281 457.046875 643.023438 460.390625 643.78125 C 467.375 645.355469 475.339844 645.601562 482.414062 644.449219 C 484.84375 644.054688 487.429688 642.5 489.714844 642.199219 C 491.542969 641.945312 492.835938 640.257812 492.582031 638.429688 C 492.339844 636.59375 490.652344 635.300781 488.816406 635.554688 C 486.484375 635.863281 483.820312 637.429688 481.328125 637.832031 C 475.085938 638.851562 468.039062 638.636719 461.863281 637.242188 C 459.015625 636.59375 456.304688 635.113281 453.558594 633.773438 C 450.1875 632.125 446.773438 630.664062 443.214844 630.371094 C 440 630.109375 437.066406 630.945312 434.179688 631.972656 C 432.003906 632.753906 429.859375 633.679688 427.515625 633.875 C 417.300781 634.71875 405.472656 631.414062 396.375 626.941406 C 389.925781 623.765625 384.875 619.003906 379.910156 614.140625 C 374.519531 608.863281 369.242188 603.445312 362.769531 599.378906 C 355.046875 594.523438 345.832031 592.921875 336.976562 595.011719 C 334.089844 595.6875 331.277344 596.605469 328.542969 597.75 C 327.980469 597.992188 327.34375 598.320312 326.667969 598.59375 C 326.535156 598.65625 326.332031 598.714844 326.152344 598.769531 Z M 326.152344 598.769531 " fill-opacity="1" fill-rule="evenodd"/><path fill="#e0c26f" d="M 482.460938 585.042969 C 482.433594 585.359375 482.265625 587.460938 482.332031 588.253906 C 482.527344 590.945312 483.097656 593.644531 483.933594 596.210938 C 487.429688 606.886719 498.84375 619.304688 510.578125 621.261719 C 512.40625 621.570312 514.128906 620.335938 514.4375 618.507812 C 514.738281 616.679688 513.5 614.957031 511.683594 614.65625 C 502.171875 613.0625 493.136719 602.78125 490.304688 594.132812 C 489.632812 592.070312 489.171875 589.914062 489.011719 587.757812 C 488.964844 587.074219 489.171875 586.023438 489.171875 585.164062 C 489.183594 584.28125 489.042969 583.484375 488.808594 582.886719 C 488.132812 581.160156 486.191406 580.300781 484.46875 580.972656 C 482.828125 581.609375 481.976562 583.390625 482.460938 585.042969 Z M 482.460938 585.042969 " fill-opacity="1" fill-rule="evenodd"/><g clip-path="url(#e99308d372)"><path fill="#e0c26f" d="M 278.097656 778.761719 C 281.5625 795.457031 289.4375 812.578125 303.726562 822.582031 C 312.746094 828.898438 324.132812 831.484375 335.925781 831.34375 C 353.175781 831.121094 371.269531 825.054688 383.660156 816.855469 C 391.621094 811.585938 396.792969 803.730469 402.15625 796.152344 C 406.929688 789.421875 411.84375 782.90625 419.859375 779.449219 C 433.710938 773.464844 448.820312 774.535156 463.125 770.59375 C 474.101562 767.578125 483.960938 761.46875 491.996094 753.480469 C 494.824219 750.664062 499.289062 746.140625 502.105469 741.339844 C 504.339844 737.53125 505.503906 733.523438 504.785156 729.875 C 503.851562 725.085938 499.316406 724.113281 495.40625 724.816406 C 490.402344 725.714844 485.660156 727.128906 480.542969 727.488281 C 468.328125 728.347656 458.5625 725.113281 450.058594 716.054688 C 442.339844 707.828125 435.828125 697.347656 428.46875 687.832031 C 420.671875 677.746094 411.921875 668.726562 400.199219 664.019531 C 390.492188 660.125 380.507812 661.203125 370.582031 662.273438 C 361.820312 663.21875 353.109375 664.191406 344.765625 660.25 C 335.429688 655.851562 329.132812 647.757812 322.210938 640.625 C 314.453125 632.636719 305.996094 625.777344 293.082031 624.8125 C 284.101562 624.144531 276.617188 627.4375 269.28125 631.101562 C 262.914062 634.289062 256.691406 637.800781 249.320312 638.117188 C 241.753906 638.441406 234.394531 635.167969 227.09375 633.648438 C 214.304688 630.96875 200.933594 630.003906 188.609375 635.222656 C 177.355469 639.988281 170.207031 648.617188 163.488281 657.710938 C 157.371094 665.996094 151.644531 674.691406 142.691406 680.4375 C 134.875 685.457031 124.480469 687.726562 115.613281 684.417969 C 110.910156 682.652344 106.882812 679.777344 102.757812 676.972656 C 101.792969 676.324219 100.6875 675.625 99.636719 675.261719 C 98.328125 674.804688 97.050781 674.777344 95.90625 675.167969 C 94.675781 675.585938 93.425781 676.484375 92.59375 678.460938 C 89.5 685.773438 90.390625 693.464844 93.710938 700.402344 C 98.445312 710.328125 108.21875 718.613281 117.410156 721.648438 C 127 724.808594 137.042969 725.4375 147.015625 726.390625 C 156.320312 727.289062 165.570312 728.464844 174.21875 732.777344 C 188.972656 740.136719 200.195312 753.449219 213.1875 763.320312 C 231.742188 777.40625 255.132812 784.023438 278.097656 778.761719 Z M 284.695312 776.929688 C 289.683594 775.289062 294.503906 773.09375 298.925781 770.238281 C 305.234375 766.164062 310.605469 760.769531 314.671875 754.460938 C 326.6875 735.8125 324.292969 711.035156 308.183594 695.496094 C 299.046875 686.699219 285.5625 681.5625 272.304688 681.382812 C 258.820312 681.199219 245.636719 686.105469 237.351562 697.160156 C 232.886719 703.113281 230.632812 710.28125 230.75 717.714844 C 230.835938 723.890625 232.417969 730.046875 235.148438 735.574219 C 239.910156 745.222656 249.265625 753.984375 260.574219 754.394531 C 269.777344 754.71875 276.734375 750.042969 280.046875 743.582031 C 283.347656 737.109375 283.0625 728.730469 277.46875 721.496094 C 273.46875 716.3125 269.355469 714.785156 264.449219 711.828125 C 262.835938 710.855469 260.738281 711.378906 259.761719 712.992188 C 258.789062 714.605469 259.316406 716.707031 260.929688 717.679688 C 265.070312 720.179688 268.679688 721.285156 272.066406 725.667969 C 275.816406 730.523438 276.179688 736.128906 273.964844 740.46875 C 271.742188 744.8125 266.988281 747.792969 260.8125 747.570312 C 252.003906 747.257812 244.980469 740.070312 241.265625 732.558594 C 238.984375 727.929688 237.648438 722.773438 237.574219 717.613281 C 237.488281 711.695312 239.261719 705.996094 242.824219 701.242188 C 249.761719 691.984375 260.898438 688.054688 272.210938 688.207031 C 283.738281 688.367188 295.496094 692.757812 303.4375 700.414062 C 317.203125 713.679688 319.195312 734.847656 308.925781 750.769531 C 305.386719 756.265625 300.710938 760.953125 295.222656 764.503906 C 289.753906 768.035156 283.605469 770.410156 277.285156 771.9375 C 256.089844 777.054688 234.453125 770.898438 217.320312 757.878906 C 203.984375 747.761719 192.398438 734.21875 177.261719 726.667969 C 167.839844 721.972656 157.800781 720.570312 147.664062 719.597656 C 138.195312 718.691406 128.652344 718.164062 119.546875 715.160156 C 113.171875 713.058594 106.492188 707.875 102.148438 701.433594 C 98.261719 695.667969 96.210938 688.84375 98.425781 682.308594 C 98.605469 682.421875 98.789062 682.535156 98.921875 682.621094 C 103.503906 685.734375 108 688.855469 113.230469 690.8125 C 124.0625 694.867188 136.8125 692.320312 146.386719 686.183594 C 156.042969 679.96875 162.371094 670.710938 168.976562 661.765625 C 174.980469 653.636719 181.222656 645.769531 191.273438 641.503906 C 202.296875 636.847656 214.257812 637.933594 225.699219 640.332031 C 233.535156 641.960938 241.484375 645.285156 249.609375 644.941406 C 257.96875 644.578125 265.109375 640.816406 272.332031 637.210938 C 278.59375 634.078125 284.921875 631.054688 292.578125 631.617188 C 303.609375 632.4375 310.683594 638.554688 317.316406 645.390625 C 324.800781 653.089844 331.765625 661.664062 341.84375 666.425781 C 351.371094 670.921875 361.304688 670.148438 371.308594 669.070312 C 380.136719 668.113281 389.03125 666.902344 397.652344 670.355469 C 408.246094 674.605469 416.023438 682.890625 423.066406 692.015625 C 430.558594 701.699219 437.214844 712.351562 445.078125 720.734375 C 455.117188 731.421875 466.609375 735.308594 481.023438 734.296875 C 486.394531 733.921875 491.367188 732.480469 496.617188 731.527344 C 497.035156 731.460938 497.761719 731.460938 498.132812 731.480469 C 498.421875 733.542969 497.476562 735.738281 496.214844 737.882812 C 493.714844 742.160156 489.699219 746.140625 487.1875 748.632812 C 479.980469 755.808594 471.152344 761.304688 461.3125 764.015625 C 446.699219 768.042969 431.296875 767.070312 417.160156 773.179688 C 407.929688 777.160156 402.078125 784.460938 396.59375 792.199219 C 391.707031 799.101562 387.132812 806.363281 379.890625 811.15625 C 368.464844 818.726562 351.753906 824.316406 335.84375 824.507812 C 325.523438 824.640625 315.53125 822.515625 307.648438 816.988281 C 294.640625 807.882812 287.757812 792.125 284.695312 776.929688 Z M 284.695312 776.929688 " fill-opacity="1" fill-rule="evenodd"/></g><path fill="#e0c26f" d="M 320.503906 722.890625 C 320.207031 722.917969 319.902344 722.976562 319.605469 723.082031 C 316.496094 724.1875 317.355469 727.117188 317.429688 727.355469 C 317.59375 727.863281 318.320312 729.875 320.875 729.734375 C 320.992188 729.734375 321.746094 729.570312 322.039062 729.542969 C 322.605469 729.484375 323.15625 729.457031 323.71875 729.445312 C 325.46875 729.417969 327.214844 729.589844 328.941406 729.855469 C 334.6875 730.753906 340.261719 732.875 345.289062 735.753906 C 358.652344 743.4375 365.429688 758.003906 360 772.816406 C 356.609375 782.082031 348.496094 789.492188 338.6875 791.3125 C 327.527344 793.394531 319.023438 783.851562 319.796875 772.996094 C 320.085938 769.066406 321.660156 764.847656 325.363281 763.042969 C 332.195312 759.710938 339.667969 765.972656 338.007812 773.152344 C 337.589844 774.984375 338.734375 776.816406 340.566406 777.246094 C 342.410156 777.664062 344.242188 776.519531 344.660156 774.6875 C 347.582031 762.039062 334.402344 751.046875 322.375 756.90625 C 316.457031 759.789062 313.441406 766.230469 312.992188 772.511719 C 311.90625 787.820312 324.207031 800.960938 339.9375 798.03125 C 352.105469 795.761719 362.203125 786.644531 366.414062 775.164062 C 373.035156 757.085938 365 739.210938 348.699219 729.839844 C 342.941406 726.535156 336.558594 724.128906 329.992188 723.109375 C 327.882812 722.785156 325.734375 722.585938 323.597656 722.621094 C 322.871094 722.640625 322.136719 722.679688 321.410156 722.746094 C 321.238281 722.757812 320.808594 722.84375 320.503906 722.890625 Z M 320.503906 722.890625 " fill-opacity="1" fill-rule="evenodd"/><path fill="#e0c26f" d="M 404.464844 272.996094 C 405.648438 274.058594 407.472656 273.960938 408.535156 272.777344 C 409.585938 271.597656 409.488281 269.78125 408.308594 268.71875 C 406.988281 267.527344 406.289062 265.308594 405.332031 263.855469 C 402.761719 259.945312 399.90625 256.207031 396.144531 253.359375 C 393.488281 251.359375 390.5 249.863281 387.339844 248.859375 C 384.285156 247.894531 380.570312 247.460938 377.488281 246.246094 C 375.300781 245.386719 373.492188 244.042969 373.125 241.171875 C 372.996094 240.160156 373.042969 239.128906 373.21875 238.132812 C 373.4375 236.964844 373.832031 235.832031 374.378906 234.789062 C 375.375 232.859375 376.820312 231.203125 378.460938 229.785156 C 380.578125 227.96875 383.003906 226.515625 385.546875 225.371094 C 389.511719 223.585938 393.777344 222.511719 398.089844 221.972656 C 403.082031 221.351562 408.15625 221.9375 413.210938 222.414062 C 418.761719 222.929688 424.285156 223.304688 429.695312 222.210938 C 434.671875 221.207031 438.089844 218.191406 441.089844 214.582031 C 443.558594 211.609375 445.703125 208.191406 448.628906 205.699219 C 457.484375 198.148438 471 199.910156 480.832031 204.675781 C 494.300781 211.207031 502.523438 226.578125 496.960938 241.164062 C 491.535156 255.386719 472.878906 260.984375 461.898438 249.582031 C 459.582031 247.179688 457.867188 244.210938 457.105469 240.953125 C 456.527344 238.503906 456.460938 235.898438 457.167969 233.460938 C 459.355469 225.941406 469.164062 221.609375 475.726562 226.539062 C 479.472656 229.359375 479.546875 235.183594 475.277344 237.394531 C 473.859375 238.117188 473.3125 239.851562 474.039062 241.269531 C 474.769531 242.675781 476.507812 243.230469 477.914062 242.5 C 486.019531 238.308594 486.292969 227.285156 479.183594 221.9375 C 469.496094 214.65625 454.878906 220.75 451.644531 231.851562 C 450.664062 235.246094 450.703125 238.855469 451.507812 242.273438 C 452.503906 246.535156 454.726562 250.425781 457.757812 253.578125 C 471.691406 268.042969 495.449219 261.265625 502.332031 243.214844 C 508.980469 225.789062 499.429688 207.296875 483.339844 199.5 C 471.601562 193.8125 455.480469 192.300781 444.898438 201.324219 C 441.722656 204.027344 439.34375 207.683594 436.660156 210.917969 C 434.503906 213.511719 432.148438 215.851562 428.554688 216.578125 C 423.699219 217.558594 418.726562 217.148438 413.75 216.679688 C 408.277344 216.175781 402.785156 215.585938 397.375 216.261719 C 392.5 216.875 387.675781 218.113281 383.191406 220.121094 C 380.144531 221.488281 377.25 223.25 374.707031 225.429688 C 372.511719 227.316406 370.597656 229.5625 369.265625 232.152344 C 368.460938 233.703125 367.875 235.382812 367.558594 237.101562 C 367.277344 238.679688 367.214844 240.304688 367.421875 241.902344 C 368.105469 247.273438 371.28125 249.976562 375.375 251.59375 C 378.574219 252.855469 382.425781 253.335938 385.601562 254.34375 C 388.144531 255.144531 390.546875 256.34375 392.675781 257.953125 C 395.910156 260.394531 398.3125 263.660156 400.53125 267.019531 C 401.730469 268.847656 402.808594 271.507812 404.464844 272.996094 Z M 404.464844 272.996094 " fill-opacity="1" fill-rule="evenodd"/><path fill="#e0c26f" d="M 464.628906 256.34375 C 465.339844 255.652344 465.675781 254.605469 465.410156 253.578125 C 465.105469 252.339844 464.347656 251.875 463.84375 251.632812 C 463.0625 251.253906 462.1875 251.175781 461.238281 251.664062 C 461.003906 251.785156 460.738281 251.960938 460.472656 252.234375 C 460.328125 252.386719 459.917969 253.046875 459.75 253.328125 C 459.40625 253.746094 459.035156 254.148438 458.679688 254.550781 C 457.675781 255.699219 456.648438 256.800781 455.464844 257.765625 C 451.726562 260.847656 447.207031 262.914062 442.488281 263.933594 C 437.230469 265.066406 431.875 265.511719 426.503906 265.484375 C 420.683594 265.453125 413.945312 265.101562 408.582031 267.832031 C 404.34375 269.988281 401.3125 273.648438 398.363281 277.441406 C 395.902344 280.601562 393.507812 283.882812 390.03125 285.910156 C 382.433594 290.339844 373.855469 289.238281 365.800781 286.640625 C 360.894531 285.054688 355.441406 282.1875 350.152344 282.492188 C 345.289062 282.78125 342.652344 285.554688 341.492188 289.246094 C 340.0625 293.828125 341.292969 300.132812 343.222656 303.832031 C 347.859375 312.691406 356.542969 319.019531 365.285156 323.398438 C 383.335938 332.460938 403.917969 333.152344 422.46875 340.648438 C 432.089844 344.539062 439.503906 351.035156 446.667969 357.871094 C 454.21875 365.074219 461.503906 372.664062 470.492188 378.347656 C 474.722656 381.015625 479.238281 383.21875 483.894531 385.03125 C 494.410156 389.121094 507.398438 392.226562 519.730469 391.832031 C 532.53125 391.421875 544.625 387.265625 552.882812 376.882812 C 556.957031 371.769531 559.738281 365.734375 561.621094 359.5 C 563.71875 352.554688 564.742188 345.261719 564.628906 338 C 564.273438 314.308594 551.457031 288.554688 525.714844 285.054688 C 495.023438 280.882812 469.679688 313.6875 483.652344 342.003906 C 486 346.773438 489.425781 350.953125 493.664062 354.164062 C 497.453125 357.015625 501.898438 359.074219 506.585938 359.902344 C 510.8125 360.652344 515.226562 360.410156 519.3125 359.058594 C 528.992188 355.859375 536.472656 345.800781 533.039062 335.378906 C 529.757812 325.410156 516.886719 319.628906 508.59375 327.628906 C 507.453125 328.730469 507.421875 330.554688 508.523438 331.699219 C 509.625 332.839844 511.449219 332.871094 512.589844 331.769531 C 517.738281 326.792969 525.535156 330.980469 527.578125 337.171875 C 529.992188 344.515625 524.320312 351.347656 517.503906 353.601562 C 514.320312 354.652344 510.886719 354.820312 507.582031 354.234375 C 503.785156 353.566406 500.191406 351.886719 497.128906 349.570312 C 493.609375 346.910156 490.761719 343.421875 488.808594 339.464844 C 476.84375 315.207031 498.648438 287.179688 524.941406 290.757812 C 547.757812 293.851562 558.566406 317.082031 558.878906 338.089844 C 558.984375 344.761719 558.042969 351.453125 556.121094 357.835938 C 554.449219 363.375 552.003906 368.753906 548.378906 373.308594 C 541.222656 382.304688 530.648438 385.730469 519.546875 386.082031 C 507.992188 386.453125 495.835938 383.5 485.984375 379.667969 C 481.667969 377.992188 477.488281 375.960938 473.570312 373.484375 C 464.902344 368.007812 457.917969 360.652344 450.632812 353.703125 C 442.953125 346.371094 434.945312 339.488281 424.621094 335.316406 C 406.21875 327.878906 385.769531 327.25 367.867188 318.261719 C 360.164062 314.394531 352.402344 308.96875 348.320312 301.160156 C 347.167969 298.964844 346.324219 295.476562 346.671875 292.484375 C 346.921875 290.324219 347.894531 288.394531 350.488281 288.230469 C 355.097656 287.964844 359.761719 290.730469 364.03125 292.117188 C 373.644531 295.210938 383.867188 296.160156 392.925781 290.878906 C 397.042969 288.472656 399.988281 284.71875 402.90625 280.972656 C 405.324219 277.851562 407.707031 274.722656 411.1875 272.957031 C 415.753906 270.640625 421.527344 271.210938 426.472656 271.234375 C 432.269531 271.265625 438.035156 270.777344 443.703125 269.554688 C 449.3125 268.347656 454.667969 265.871094 459.121094 262.214844 C 460.539062 261.039062 461.792969 259.730469 463.007812 258.347656 C 463.449219 257.839844 463.90625 257.339844 464.324219 256.820312 C 464.398438 256.730469 464.519531 256.535156 464.628906 256.34375 Z M 460.273438 255.933594 C 460.097656 255.699219 459.941406 255.394531 459.839844 254.984375 C 459.925781 255.339844 460.078125 255.660156 460.273438 255.933594 Z M 460.273438 255.933594 " fill-opacity="1" fill-rule="evenodd"/><g clip-path="url(#e1f7289b4f)"><path fill="#e0c26f" d="M 505.136719 236.242188 C 505.273438 236.242188 505.402344 236.25 505.539062 236.25 C 507.589844 236.285156 509.527344 236.757812 511.457031 237.425781 C 518.96875 240.03125 526.050781 242.492188 533.980469 239.78125 C 540.972656 237.394531 546.304688 232.160156 552.230469 227.984375 C 561.820312 221.222656 572.765625 216.6875 584.496094 220.113281 C 590.792969 221.949219 596.402344 225.378906 601.660156 229.222656 C 606.855469 233.019531 611.875 237.425781 618.175781 239.273438 C 625.460938 241.40625 632.835938 240.367188 640.230469 239.042969 C 646.847656 237.851562 653.480469 236.410156 660.097656 237.585938 C 667.632812 238.929688 673.597656 243.078125 679.339844 247.660156 C 685.585938 252.660156 691.570312 258.175781 698.597656 261.820312 C 702.710938 263.949219 706.492188 264.085938 710.277344 263.460938 C 713.511719 262.921875 716.75 261.761719 720.28125 261.078125 C 724.101562 260.339844 728.023438 260.339844 731.792969 261.359375 C 739.480469 263.425781 745.125 268.589844 750.28125 274.417969 C 755.867188 280.746094 760.875 287.863281 766.828125 293.296875 C 776.160156 301.820312 786.378906 300.492188 797.683594 297.785156 C 798.980469 297.46875 800.980469 296.882812 802.710938 296.929688 C 803.207031 296.949219 803.765625 296.914062 803.820312 297.511719 C 804.027344 299.824219 803.335938 302.238281 802.285156 304.585938 C 800.492188 308.566406 797.605469 312.320312 795.257812 315.109375 C 790.257812 321.042969 783.96875 325.917969 776.730469 328.8125 C 761.984375 334.6875 745.496094 334.085938 730.75 340.171875 C 721.871094 343.832031 715.511719 350.261719 709.628906 357.289062 C 704.160156 363.8125 699.109375 370.855469 692.4375 376.234375 C 675.679688 389.757812 646.734375 396.824219 626.53125 387.632812 C 617.71875 383.621094 610.652344 376.121094 605.417969 368.121094 C 597.957031 356.710938 592.792969 341.84375 594.949219 328.136719 C 598.855469 303.257812 623.886719 284.878906 648.335938 294.832031 C 657.613281 298.613281 666.699219 306.539062 671.683594 315.914062 C 676.46875 324.910156 677.417969 335.300781 670.574219 344.488281 C 668.96875 346.652344 667.003906 348.535156 664.800781 350.109375 C 661.554688 352.425781 657.824219 354.042969 653.957031 355 C 647.089844 356.703125 638.800781 356.222656 633.074219 351.679688 C 629.359375 348.726562 627.550781 343.582031 627.566406 338.523438 C 627.585938 333.523438 629.394531 328.503906 633.355469 325.765625 C 637.707031 322.75 643.859375 323.0625 647.453125 327.074219 C 649.40625 329.253906 650.039062 332.019531 649.09375 334.222656 C 648.488281 335.613281 647.242188 336.699219 645.417969 337.246094 C 643.898438 337.695312 643.03125 339.304688 643.488281 340.824219 C 643.9375 342.34375 645.546875 343.210938 647.066406 342.753906 C 650.75 341.652344 653.152344 339.3125 654.367188 336.515625 C 656.128906 332.445312 655.332031 327.25 651.738281 323.238281 C 646.214844 317.0625 636.765625 316.398438 630.085938 321.035156 C 624.617188 324.824219 621.84375 331.601562 621.820312 338.5 C 621.796875 345.34375 624.472656 352.191406 629.496094 356.179688 C 636.597656 361.816406 646.832031 362.695312 655.339844 360.585938 C 659.914062 359.453125 664.304688 357.53125 668.148438 354.789062 C 670.832031 352.875 673.222656 350.570312 675.191406 347.921875 C 683.503906 336.753906 682.570312 324.140625 676.765625 313.214844 C 671.15625 302.671875 660.933594 293.753906 650.507812 289.511719 C 622.558594 278.125 593.726562 298.804688 589.265625 327.242188 C 586.898438 342.320312 592.398438 358.722656 600.601562 371.273438 C 606.414062 380.164062 614.359375 388.414062 624.144531 392.867188 C 646.179688 402.886719 677.78125 395.449219 696.046875 380.710938 C 703.011719 375.089844 708.332031 367.789062 714.042969 360.980469 C 719.332031 354.667969 724.960938 348.785156 732.945312 345.488281 C 747.667969 339.410156 764.140625 340.027344 778.863281 334.148438 C 786.976562 330.910156 794.042969 325.476562 799.65625 318.808594 C 802.300781 315.671875 805.507812 311.429688 807.527344 306.949219 C 809.007812 303.652344 809.835938 300.234375 809.542969 296.988281 C 809.222656 293.480469 807.1875 291.90625 804.519531 291.367188 C 801.945312 290.835938 798.433594 291.6875 796.34375 292.1875 C 786.984375 294.4375 778.4375 296.101562 770.710938 289.050781 C 764.898438 283.746094 760.039062 276.78125 754.589844 270.609375 C 748.6875 263.933594 742.09375 258.175781 733.289062 255.804688 C 728.667969 254.558594 723.859375 254.527344 719.179688 255.433594 C 716.347656 255.980469 713.703125 256.84375 711.097656 257.4375 C 707.875 258.167969 704.722656 258.515625 701.242188 256.714844 C 694.542969 253.242188 688.882812 247.933594 682.925781 243.164062 C 676.445312 237.988281 669.617188 233.445312 661.105469 231.925781 C 653.820312 230.632812 646.503906 232.070312 639.210938 233.378906 C 632.699219 234.554688 626.210938 235.632812 619.792969 233.75 C 614.132812 232.09375 609.71875 227.984375 605.0625 224.585938 C 599.257812 220.347656 593.050781 216.617188 586.105469 214.589844 C 572.621094 210.652344 559.949219 215.507812 548.910156 223.289062 C 543.433594 227.148438 538.59375 232.132812 532.121094 234.335938 C 525.496094 236.597656 519.617188 234.167969 513.339844 231.988281 C 510.824219 231.121094 508.304688 230.542969 505.628906 230.503906 C 504.65625 230.484375 503.617188 230.542969 502.683594 230.839844 C 502.402344 230.929688 501.777344 231.226562 501.238281 231.78125 C 500.683594 232.351562 500.25 233.195312 500.160156 233.566406 C 499.886719 234.667969 500.242188 235.488281 500.660156 236.035156 C 501.132812 236.667969 501.90625 237.335938 503.328125 237.175781 C 504.050781 237.09375 504.679688 236.75 505.136719 236.242188 Z M 504.769531 232.046875 C 504.1875 231.605469 503.449219 231.371094 502.675781 231.460938 C 503.640625 231.347656 504.300781 231.644531 504.769531 232.046875 Z M 504.769531 232.046875 " fill-opacity="1" fill-rule="evenodd"/></g><path fill="#e0c26f" d="M 531.238281 234.933594 C 531.179688 235.011719 531.132812 235.101562 531.085938 235.191406 C 529.78125 237.738281 532.21875 239.03125 532.378906 239.105469 C 532.699219 239.265625 534.4375 240.0625 535.851562 238.359375 C 535.890625 238.300781 536.054688 238.058594 536.207031 237.8125 C 536.308594 237.640625 536.414062 237.464844 536.464844 237.351562 C 536.664062 236.902344 536.800781 236.421875 536.90625 235.9375 C 537.128906 234.898438 537.1875 233.832031 537.144531 232.777344 C 537.066406 230.269531 536.640625 227.769531 536.078125 225.332031 C 534.210938 217.316406 530.648438 209.621094 525.535156 203.15625 C 515.058594 189.929688 495.84375 183.152344 479.882812 190.453125 C 476.890625 191.820312 474.277344 193.894531 471.835938 196.074219 C 470.652344 197.125 470.546875 198.953125 471.601562 200.132812 C 472.65625 201.324219 474.480469 201.429688 475.660156 200.367188 C 477.679688 198.574219 479.804688 196.8125 482.277344 195.679688 C 495.851562 189.472656 512.125 195.480469 521.027344 206.726562 C 525.617188 212.53125 528.800781 219.4375 530.472656 226.636719 C 530.957031 228.710938 531.332031 230.832031 531.40625 232.960938 C 531.421875 233.558594 531.40625 234.152344 531.285156 234.730469 C 531.269531 234.796875 531.253906 234.859375 531.238281 234.933594 Z M 536.4375 237.175781 C 536.617188 236.445312 536.496094 235.679688 536.125 235.046875 C 536.398438 235.472656 536.695312 236.171875 536.4375 237.175781 Z M 536.4375 237.175781 " fill-opacity="1" fill-rule="evenodd"/><path fill="#e0c26f" d="M 575.347656 214.429688 C 575.585938 215.996094 577.058594 217.066406 578.625 216.824219 C 580.195312 216.578125 581.273438 215.105469 581.03125 213.539062 C 580.683594 211.367188 578.957031 209.179688 577.695312 207.449219 C 574.976562 203.710938 571.710938 200.3125 568.253906 197.253906 C 556.273438 186.683594 540.410156 180.589844 524.339844 181.960938 C 517.449219 182.558594 509.109375 184.929688 504.382812 190.398438 C 503.335938 191.59375 503.472656 193.414062 504.671875 194.457031 C 505.871094 195.496094 507.6875 195.367188 508.722656 194.160156 C 512.519531 189.785156 519.3125 188.171875 524.828125 187.695312 C 539.339844 186.449219 553.636719 192.027344 564.441406 201.566406 C 567.59375 204.347656 570.570312 207.433594 573.046875 210.835938 C 573.527344 211.503906 574.140625 212.234375 574.664062 213.015625 C 574.96875 213.472656 575.265625 213.929688 575.347656 214.429688 Z M 575.347656 214.429688 " fill-opacity="1" fill-rule="evenodd"/><path fill="#e0c26f" d="M 595.117188 355.183594 C 595.429688 354.933594 595.6875 354.621094 595.878906 354.234375 C 596.332031 353.347656 596.203125 352.730469 596.160156 352.480469 C 596.023438 351.574219 595.558594 350.992188 595.027344 350.597656 C 594.457031 350.179688 593.445312 349.660156 592.0625 350.324219 C 591.933594 350.390625 591.207031 350.960938 590.953125 351.21875 C 590.824219 351.347656 590.703125 351.476562 590.566406 351.597656 C 590.050781 352.054688 589.472656 352.433594 588.886719 352.785156 C 586.914062 353.976562 584.769531 354.867188 582.507812 355.335938 C 575.496094 356.804688 568.429688 355.40625 562.808594 350.945312 C 561.570312 349.957031 559.761719 350.164062 558.773438 351.410156 C 557.785156 352.648438 557.996094 354.464844 559.242188 355.449219 C 566.210938 360.988281 574.976562 362.789062 583.683594 360.972656 C 586.578125 360.359375 589.335938 359.234375 591.859375 357.707031 C 592.746094 357.175781 593.597656 356.589844 594.367188 355.90625 C 594.601562 355.703125 594.828125 355.480469 595.042969 355.261719 C 595.058594 355.246094 595.085938 355.214844 595.117188 355.183594 Z M 590.492188 353.527344 C 590.386719 353.148438 590.316406 352.503906 590.742188 351.652344 C 590.4375 352.253906 590.363281 352.914062 590.492188 353.527344 Z M 590.492188 353.527344 " fill-opacity="1" fill-rule="evenodd"/><path fill="#e0c26f" d="M 254.46875 445.390625 C 254.292969 445.25 254.097656 445.128906 253.871094 445.042969 C 252.757812 444.605469 251.488281 445.160156 251.050781 446.28125 C 250.550781 447.558594 250.984375 448.398438 251.734375 449.027344 C 251.984375 449.238281 252.332031 449.441406 252.773438 449.558594 C 253.109375 449.648438 254.019531 449.714844 254.28125 449.726562 C 255.5 450.335938 256.574219 451.210938 257.496094 452.214844 C 260.53125 455.527344 262.398438 460.324219 260.097656 464.507812 C 255.429688 473.027344 243.769531 472.074219 236.566406 467.507812 C 225.148438 460.265625 222.429688 445.53125 232.171875 435.824219 C 235.433594 432.570312 239.453125 430.160156 243.8125 428.691406 C 247.804688 427.347656 252 426.757812 256.203125 427.160156 C 270.636719 428.527344 280.921875 439.550781 284.582031 452.292969 C 288.21875 464.996094 285.28125 479.476562 273.03125 487.886719 C 269.789062 490.113281 266.109375 491.703125 262.292969 492.648438 C 248.636719 496.027344 236.664062 492.25 225.375 486.226562 C 213.625 479.953125 202.59375 471.257812 191.261719 465.097656 C 186.007812 462.238281 180.386719 459.972656 174.609375 458.398438 C 166.207031 456.105469 158.039062 456.039062 149.585938 458.050781 C 147.125 458.636719 144.109375 459.820312 141.09375 460.515625 C 138.617188 461.085938 136.128906 461.390625 134.097656 460.289062 C 131.140625 458.679688 129.445312 455.570312 128.605469 452.074219 C 127.246094 446.429688 128.113281 439.714844 130.367188 435.59375 C 133.042969 430.722656 137.734375 428.726562 142.75 427.246094 C 148.488281 425.550781 154.660156 424.527344 159.542969 421.769531 C 165.074219 418.648438 169.472656 413.640625 174.074219 408.976562 C 178.257812 404.738281 182.605469 400.769531 188.488281 399.269531 C 192.085938 398.355469 195.320312 399.660156 198.511719 400.792969 C 202.5625 402.238281 206.5625 403.484375 210.878906 402.085938 C 216.734375 400.199219 220.910156 395.722656 225.160156 391.308594 C 228.855469 387.464844 232.609375 383.648438 238.164062 382.484375 C 242.777344 381.515625 247.671875 382.628906 252.023438 384.214844 C 254.511719 385.125 256.789062 386.214844 259.09375 386.777344 C 261.789062 387.433594 264.519531 387.449219 267.585938 385.972656 C 272.273438 383.722656 275.941406 379.53125 279.996094 376.367188 C 287.660156 370.386719 296.617188 365.601562 306.660156 366.046875 C 312.425781 366.300781 316.152344 369.503906 319.660156 373.070312 C 323.738281 377.214844 327.5625 381.832031 333.023438 384.257812 C 335.707031 385.449219 338.496094 385.5625 341.292969 385.222656 C 343.738281 384.929688 346.191406 384.277344 348.566406 383.886719 C 354.382812 382.921875 360.738281 382.378906 366.480469 384.003906 C 371.207031 385.332031 374.078125 388.691406 376.882812 392.082031 C 380.1875 396.070312 383.398438 400.125 388.328125 402.210938 C 393.730469 404.496094 399.085938 403.367188 404.457031 401.820312 C 409 400.515625 413.542969 398.863281 418.175781 399.84375 C 422.628906 400.78125 425.453125 403.738281 428.019531 407.019531 C 431.011719 410.832031 433.683594 415.082031 437.445312 418.03125 C 440.117188 420.128906 443.359375 421.28125 446.695312 422.238281 C 449.632812 423.082031 452.652344 423.769531 455.296875 425.082031 C 465.121094 429.941406 470.726562 439.503906 473.042969 449.964844 C 473.675781 452.84375 474.511719 458.582031 473.367188 462.808594 C 472.796875 464.890625 471.71875 466.613281 469.414062 466.738281 C 464.394531 467.015625 458.964844 463.597656 454.507812 461.714844 C 443.671875 457.136719 433.097656 453.945312 421.78125 459.050781 C 412 463.460938 404.816406 472.210938 396.433594 478.671875 C 385.890625 486.800781 371.171875 494.496094 356.523438 496.996094 C 342.304688 499.429688 328.132812 496.929688 318.21875 484.722656 C 310.183594 474.832031 307.648438 460.433594 310.78125 448.3125 C 313.855469 436.433594 322.480469 426.746094 336.945312 425.945312 C 341.011719 425.722656 345.105469 426.34375 348.96875 427.617188 C 354.707031 429.515625 360.0625 432.746094 364.402344 436.945312 C 367.835938 440.265625 370.71875 444.269531 372.148438 448.863281 C 373.21875 452.308594 373.457031 456.007812 372.855469 459.5625 C 371.1875 469.355469 361.398438 477.78125 351.34375 474.039062 C 348.164062 472.855469 344.828125 470.152344 342.953125 466.941406 C 341.273438 464.074219 340.789062 460.75 343.140625 457.855469 C 343.898438 456.921875 343.757812 455.550781 342.816406 454.789062 C 341.882812 454.03125 340.511719 454.171875 339.75 455.105469 C 336.121094 459.582031 336.597656 464.714844 339.183594 469.140625 C 341.566406 473.214844 345.792969 476.628906 349.816406 478.128906 C 362.476562 482.835938 375.0625 472.625 377.152344 460.292969 C 377.871094 456.070312 377.585938 451.660156 376.316406 447.570312 C 374.671875 442.277344 371.390625 437.636719 367.4375 433.8125 C 362.621094 429.15625 356.695312 425.574219 350.335938 423.476562 C 345.957031 422.03125 341.3125 421.335938 336.707031 421.59375 C 320.078125 422.507812 310.09375 433.570312 306.5625 447.222656 C 303.09375 460.625 305.953125 476.53125 314.835938 487.472656 C 325.828125 501.015625 341.480469 503.988281 357.257812 501.292969 C 372.605469 498.671875 388.050781 490.640625 399.097656 482.125 C 407.214844 475.867188 414.097656 467.300781 423.574219 463.027344 C 433.6875 458.464844 443.117188 461.636719 452.804688 465.734375 C 457.816406 467.847656 464.011719 471.398438 469.652344 471.09375 C 474.0625 470.855469 476.488281 467.945312 477.574219 463.945312 C 478.910156 459.039062 478.035156 452.367188 477.296875 449.019531 C 474.695312 437.269531 468.261719 426.636719 457.230469 421.171875 C 454.359375 419.746094 451.089844 418.960938 447.894531 418.042969 C 445.109375 417.246094 442.371094 416.355469 440.132812 414.601562 C 436.644531 411.863281 434.230469 407.863281 431.453125 404.324219 C 428.25 400.246094 424.617188 396.746094 419.078125 395.574219 C 413.742188 394.449219 408.476562 396.125 403.25 397.628906 C 398.839844 398.898438 394.464844 400.070312 390.03125 398.195312 C 385.761719 396.386719 383.105469 392.753906 380.246094 389.300781 C 376.890625 385.238281 373.316406 381.398438 367.664062 379.800781 C 361.3125 378.015625 354.285156 378.515625 347.855469 379.582031 C 345.539062 379.964844 343.152344 380.605469 340.769531 380.890625 C 338.75 381.136719 336.730469 381.128906 334.792969 380.269531 C 329.835938 378.070312 326.46875 373.769531 322.769531 370.015625 C 318.507812 365.679688 313.859375 361.996094 306.855469 361.683594 C 295.746094 361.199219 285.789062 366.3125 277.3125 372.929688 C 273.5 375.910156 270.105469 379.921875 265.703125 382.039062 C 263.246094 383.222656 261.105469 382.90625 258.945312 382.203125 C 257.191406 381.628906 255.421875 380.8125 253.519531 380.117188 C 248.421875 378.257812 242.671875 377.074219 237.269531 378.214844 C 230.804688 379.574219 226.316406 383.8125 222.019531 388.28125 C 218.269531 392.179688 214.703125 396.269531 209.539062 397.941406 C 206.191406 399.019531 203.117188 397.808594 199.976562 396.683594 C 195.984375 395.265625 191.910156 393.90625 187.414062 395.042969 C 180.738281 396.738281 175.714844 401.105469 170.972656 405.910156 C 166.652344 410.289062 162.585938 415.042969 157.402344 417.972656 C 152.792969 420.570312 146.933594 421.464844 141.519531 423.0625 C 135.386719 424.875 129.820312 427.539062 126.542969 433.496094 C 123.855469 438.398438 122.746094 446.378906 124.367188 453.09375 C 125.507812 457.84375 128 461.933594 132.015625 464.117188 C 134.402344 465.417969 137.207031 465.585938 140.105469 465.148438 C 143.769531 464.582031 147.59375 463.007812 150.59375 462.292969 C 158.320312 460.453125 165.789062 460.507812 173.464844 462.605469 C 178.910156 464.09375 184.222656 466.234375 189.183594 468.929688 C 200.519531 475.09375 211.554688 483.792969 223.324219 490.074219 C 235.550781 496.597656 248.542969 500.542969 263.34375 496.886719 C 267.660156 495.8125 271.832031 494 275.5 491.476562 C 289.414062 481.929688 292.910156 465.519531 288.769531 451.09375 C 284.640625 436.695312 272.914062 424.363281 256.617188 422.8125 C 251.804688 422.363281 246.996094 423.019531 242.421875 424.558594 C 237.429688 426.238281 232.832031 429.007812 229.09375 432.734375 C 217.277344 444.515625 220.378906 462.402344 234.234375 471.191406 C 243.355469 476.972656 258 477.398438 263.929688 466.605469 C 267.140625 460.734375 264.96875 453.917969 260.714844 449.269531 C 259.371094 447.808594 257.78125 446.558594 255.984375 445.710938 C 255.679688 445.5625 254.988281 445.460938 254.46875 445.390625 Z M 255.25 447.28125 C 255.238281 447.464844 255.195312 447.660156 255.109375 447.875 C 255.191406 447.679688 255.234375 447.484375 255.25 447.28125 Z M 255.25 447.28125 " fill-opacity="1" fill-rule="evenodd"/><path fill="#e0c26f" d="M 322.214844 425.648438 C 322.214844 425.648438 321.738281 425.378906 321.628906 425.3125 C 320.726562 424.746094 319.824219 424.183594 318.878906 423.691406 C 316.121094 422.253906 313.175781 421.0625 310.195312 420.195312 C 300.203125 417.300781 289.574219 418.820312 280.507812 423.777344 C 278.386719 424.941406 276.34375 426.300781 274.542969 427.933594 C 273.609375 428.777344 272.566406 429.910156 272.304688 431.214844 C 272.074219 432.390625 272.835938 433.542969 274.019531 433.78125 C 275.203125 434.015625 276.347656 433.25 276.585938 432.070312 C 276.609375 431.941406 276.746094 431.867188 276.835938 431.769531 C 277.042969 431.550781 277.269531 431.347656 277.476562 431.160156 C 279.019531 429.765625 280.773438 428.597656 282.597656 427.605469 C 290.660156 423.195312 300.097656 421.8125 308.980469 424.386719 C 311.691406 425.171875 314.359375 426.253906 316.855469 427.558594 C 317.703125 428.003906 318.507812 428.503906 319.316406 429.007812 C 319.519531 429.136719 320.238281 429.542969 320.390625 429.613281 C 321.925781 430.289062 322.871094 429.136719 323.011719 428.960938 C 323.75 428.007812 323.574219 426.636719 322.621094 425.898438 C 322.496094 425.792969 322.359375 425.714844 322.214844 425.648438 Z M 322.214844 425.648438 " fill-opacity="1" fill-rule="evenodd"/><g clip-path="url(#6b2fb6ffcc)"><path fill="#e0c26f" d="M 136.167969 593.679688 C 137.132812 593.753906 137.976562 593.027344 138.046875 592.058594 C 138.121094 591.09375 137.394531 590.25 136.425781 590.179688 C 133.734375 589.980469 132.101562 587.757812 131.820312 585.476562 C 131.539062 583.261719 132.589844 580.941406 135.351562 580.347656 C 136.65625 580.066406 138.054688 580.214844 139.316406 580.632812 C 142.875 581.808594 145.378906 584.90625 146.441406 588.414062 C 147.503906 591.914062 147.144531 595.859375 144.8125 598.789062 C 142.554688 601.628906 138.683594 602.613281 135.175781 602.625 C 129.742188 602.640625 124.238281 599.800781 120.648438 595.582031 C 117.148438 591.472656 115.476562 586 117.710938 580.558594 C 120.019531 574.917969 126.480469 571.734375 132.136719 570.523438 C 135.363281 569.835938 138.917969 569.632812 142.160156 570.375 C 146.601562 571.386719 150.035156 574.144531 153.371094 577.082031 C 157.050781 580.320312 160.621094 583.785156 164.972656 585.902344 C 168.035156 587.394531 171.550781 588.375 174.941406 588.714844 C 176.574219 588.878906 178.175781 588.796875 179.753906 588.847656 C 181.066406 588.886719 182.367188 589.023438 183.65625 589.617188 C 185.570312 590.5 188.363281 593.054688 189.84375 595.796875 C 190.648438 597.292969 191.140625 598.835938 190.441406 600.132812 C 190.019531 600.910156 189.023438 601.082031 188.035156 601.238281 C 186.503906 601.484375 184.847656 601.453125 183.730469 601.5625 C 179.042969 602.027344 175.054688 603.632812 171.238281 606.40625 C 167.082031 609.429688 163.519531 613.175781 159.066406 615.808594 C 151.007812 620.566406 141.144531 621.542969 132.398438 618.160156 C 129.152344 616.902344 126.355469 614.871094 123.519531 612.925781 C 120.421875 610.796875 117.273438 608.761719 113.585938 607.675781 C 108.546875 606.195312 103.453125 607.105469 98.335938 608.015625 C 93.78125 608.820312 89.207031 609.628906 84.632812 608.042969 C 79.6875 606.332031 76.546875 602.980469 73.71875 599.273438 C 70.632812 595.214844 67.914062 590.746094 64.042969 587.148438 C 61.015625 584.335938 57.265625 582.703125 53.261719 581.863281 C 49.933594 581.171875 46.125 581.171875 43.289062 579.074219 C 41.171875 577.515625 40.074219 575.128906 38.964844 572.71875 C 37.640625 569.839844 36.335938 566.910156 34.046875 564.734375 C 29.335938 560.269531 22.398438 559.003906 16.257812 560.703125 C 13.074219 561.582031 10.050781 562.980469 7.035156 564.320312 C 6.5625 564.535156 5.914062 564.867188 5.253906 565.054688 C 5.117188 565.089844 4.980469 565.125 4.847656 565.136719 C 4.769531 565.148438 4.6875 565.195312 4.617188 565.148438 C 4.476562 565.054688 4.402344 564.882812 4.328125 564.707031 C 4.167969 564.328125 4.074219 563.890625 4.007812 563.441406 C 3.847656 562.3125 3.875 561.113281 3.863281 560.339844 C 3.75 552.953125 8.003906 548.824219 13.582031 546.179688 C 19.664062 543.296875 27.265625 542.09375 33.195312 540.679688 C 36.015625 540.007812 38.796875 539.179688 41.488281 538.089844 C 46.550781 536.03125 51.238281 533.171875 55.539062 529.816406 C 59.839844 526.453125 63.785156 522.664062 68.101562 519.324219 C 74.730469 514.195312 83.4375 509.144531 92.441406 506.734375 C 101.171875 504.402344 110.203125 504.550781 117.789062 509.796875 C 120.433594 511.621094 122.707031 513.96875 124.554688 516.589844 C 134.589844 530.804688 129.761719 552.894531 113.117188 559.808594 C 100.144531 565.203125 86.683594 554.261719 86.441406 540.699219 C 86.386719 537.679688 87.210938 534.558594 88.816406 532 C 90.015625 530.089844 91.734375 528.539062 93.730469 527.492188 C 95.738281 526.4375 98.035156 525.835938 100.304688 525.761719 C 103.960938 525.648438 107.800781 527.105469 110.121094 530 C 113.363281 534.050781 112.101562 540.347656 107.632812 542.945312 C 105.621094 544.121094 103.378906 544.363281 101.09375 544.390625 C 100.125 544.402344 99.347656 545.199219 99.359375 546.164062 C 99.371094 547.132812 100.164062 547.914062 101.132812 547.902344 C 104.027344 547.867188 106.855469 547.464844 109.402344 545.980469 C 115.667969 542.328125 117.410156 533.488281 112.859375 527.808594 C 109.863281 524.0625 104.921875 522.105469 100.191406 522.257812 C 97.402344 522.34375 94.570312 523.085938 92.097656 524.382812 C 89.554688 525.714844 87.371094 527.695312 85.839844 530.132812 C 83.878906 533.265625 82.867188 537.074219 82.929688 540.757812 C 83.214844 556.722656 99.203125 569.394531 114.464844 563.050781 C 133.148438 555.289062 138.6875 530.527344 127.421875 514.5625 C 125.335938 511.609375 122.769531 508.972656 119.785156 506.910156 C 112.988281 502.210938 105.171875 501.082031 97.308594 502.164062 C 85.871094 503.746094 74.332031 510.066406 65.957031 516.550781 C 61.632812 519.890625 57.6875 523.683594 53.378906 527.046875 C 49.335938 530.203125 44.925781 532.902344 40.167969 534.835938 C 37.640625 535.859375 35.035156 536.636719 32.382812 537.265625 C 26.238281 538.726562 18.378906 540.015625 12.078125 543.011719 C 5.265625 546.238281 0.214844 551.378906 0.351562 560.394531 C 0.371094 561.480469 0.347656 563.273438 0.691406 564.792969 C 1.011719 566.203125 1.664062 567.386719 2.644531 568.054688 C 3.488281 568.628906 4.515625 568.765625 5.585938 568.574219 C 6.625 568.390625 7.714844 567.863281 8.464844 567.527344 C 11.316406 566.257812 14.175781 564.917969 17.191406 564.082031 C 22.171875 562.707031 27.808594 563.660156 31.628906 567.28125 C 33.597656 569.148438 34.636719 571.714844 35.773438 574.1875 C 37.132812 577.140625 38.605469 579.976562 41.203125 581.898438 C 44.445312 584.296875 48.742188 584.507812 52.542969 585.304688 C 55.921875 586.003906 59.101562 587.347656 61.652344 589.71875 C 65.375 593.175781 67.960938 597.503906 70.925781 601.398438 C 74.160156 605.644531 77.820312 609.402344 83.484375 611.363281 C 88.648438 613.148438 93.808594 612.382812 98.949219 611.46875 C 103.527344 610.660156 108.085938 609.71875 112.597656 611.042969 C 115.921875 612.019531 118.742188 613.898438 121.53125 615.816406 C 124.59375 617.917969 127.628906 620.078125 131.132812 621.429688 C 140.878906 625.207031 151.871094 624.136719 160.851562 618.832031 C 165.40625 616.140625 169.054688 612.332031 173.304688 609.242188 C 176.59375 606.851562 180.027344 605.457031 184.078125 605.054688 C 185.519531 604.914062 187.78125 604.960938 189.664062 604.484375 C 191.367188 604.054688 192.773438 603.199219 193.53125 601.796875 C 194.757812 599.523438 194.347656 596.753906 192.929688 594.125 C 191.070312 590.691406 187.527344 587.539062 185.128906 586.433594 C 181.902344 584.945312 178.679688 585.5625 175.289062 585.222656 C 172.300781 584.925781 169.207031 584.054688 166.507812 582.746094 C 162.4375 580.769531 159.136719 577.480469 155.691406 574.449219 C 151.910156 571.121094 147.964844 568.097656 142.9375 566.949219 C 139.214844 566.101562 135.117188 566.296875 131.402344 567.089844 C 124.691406 568.527344 117.199219 572.539062 114.460938 579.222656 C 111.699219 585.96875 113.644531 592.761719 117.980469 597.855469 C 122.21875 602.847656 128.761719 606.15625 135.183594 606.136719 C 139.71875 606.121094 144.640625 604.648438 147.5625 600.972656 C 150.613281 597.136719 151.191406 591.980469 149.800781 587.394531 C 148.410156 582.816406 145.0625 578.835938 140.421875 577.296875 C 138.574219 576.691406 136.523438 576.503906 134.617188 576.917969 C 129.746094 577.957031 127.847656 582.015625 128.335938 585.910156 C 128.808594 589.734375 131.652344 593.339844 136.167969 593.679688 Z M 136.167969 593.679688 " fill-opacity="1" fill-rule="evenodd"/></g><path fill="#e0c26f" d="M 170.058594 546.371094 C 170.058594 546.371094 170.808594 546.652344 171.089844 546.707031 C 171.535156 546.800781 171.90625 546.738281 172.175781 546.652344 C 172.574219 546.515625 172.875 546.277344 173.09375 545.964844 C 173.320312 545.652344 173.511719 545.210938 173.414062 544.570312 C 173.265625 543.613281 172.367188 542.957031 171.410156 543.105469 C 171.390625 543.105469 171.367188 543.109375 171.347656 543.113281 C 171.074219 543.023438 170.753906 542.925781 170.585938 542.902344 C 169.335938 542.75 168.160156 542.289062 167.035156 541.714844 C 164.078125 540.203125 161.582031 537.859375 160.523438 534.648438 C 158.496094 528.507812 163.398438 523.734375 169.304688 523.03125 C 178.117188 521.988281 184.839844 527.292969 187.847656 534.300781 C 190.875 541.351562 190.1875 550.171875 184.003906 556.132812 C 177.628906 562.277344 167.972656 562.699219 159.917969 560.054688 C 144.957031 555.140625 130.558594 539.355469 134.914062 522.71875 C 135.578125 520.1875 136.609375 517.722656 137.996094 515.503906 C 143.234375 507.117188 152.121094 503.761719 161.484375 503.554688 C 171.097656 503.347656 181.230469 506.449219 188.699219 511.074219 C 194.085938 514.398438 198.023438 519.292969 202.582031 523.578125 C 209.015625 529.625 216.050781 534.796875 224.605469 537.347656 C 233.332031 539.953125 243.511719 539.683594 253.0625 540.839844 C 262.039062 541.925781 270.464844 544.292969 276.304688 552.1875 C 277.566406 553.890625 278.625 555.765625 279.367188 557.746094 C 279.972656 559.375 280.496094 562.023438 280.210938 564.320312 C 279.992188 566.050781 279.328125 567.632812 277.394531 567.789062 C 274.53125 568.023438 271.480469 566.34375 268.847656 565.441406 C 261.21875 562.835938 252.160156 559.6875 244.242188 563.058594 C 239.664062 565.003906 237.28125 568.902344 235.136719 573.039062 C 233.3125 576.546875 231.699219 580.25 228.351562 582.457031 C 225.722656 584.195312 222.992188 583.199219 220.246094 582.191406 C 215.925781 580.613281 211.0625 578.59375 206.363281 579.550781 C 201.996094 580.445312 200.121094 583.804688 198.300781 587.074219 C 197.027344 589.355469 195.820312 591.628906 192.539062 591.574219 C 191.570312 591.558594 190.773438 592.335938 190.757812 593.308594 C 190.742188 594.273438 191.519531 595.074219 192.484375 595.089844 C 197.378906 595.160156 199.472656 592.179688 201.367188 588.78125 C 202.707031 586.378906 203.851562 583.648438 207.0625 582.992188 C 211.132812 582.164062 215.304688 584.121094 219.042969 585.488281 C 222.851562 586.882812 226.640625 587.789062 230.285156 585.386719 C 234.140625 582.84375 236.15625 578.699219 238.25 574.660156 C 240.023438 571.242188 241.839844 567.890625 245.617188 566.285156 C 252.738281 563.257812 260.851562 566.417969 267.710938 568.765625 C 270.769531 569.808594 274.359375 571.558594 277.683594 571.289062 C 280.832031 571.027344 282.554688 569.109375 283.324219 566.527344 C 284.28125 563.335938 283.582031 558.992188 282.660156 556.519531 C 281.800781 554.230469 280.578125 552.066406 279.125 550.101562 C 272.664062 541.355469 263.421875 538.558594 253.484375 537.355469 C 244.128906 536.222656 234.152344 536.539062 225.609375 533.984375 C 217.585938 531.589844 211.019531 526.6875 204.988281 521.019531 C 200.257812 516.574219 196.128906 511.539062 190.546875 508.089844 C 182.550781 503.140625 171.695312 499.824219 161.40625 500.046875 C 150.859375 500.277344 140.921875 504.199219 135.019531 513.644531 C 133.449219 516.160156 132.269531 518.953125 131.519531 521.828125 C 126.699219 540.238281 142.261719 557.953125 158.820312 563.390625 C 168.070312 566.429688 179.121094 565.71875 186.4375 558.660156 C 193.734375 551.625 194.644531 541.238281 191.074219 532.914062 C 187.484375 524.546875 179.410156 518.296875 168.894531 519.546875 C 160.78125 520.511719 154.40625 527.328125 157.183594 535.746094 C 158.539062 539.84375 161.660156 542.914062 165.4375 544.839844 C 166.890625 545.585938 168.433594 546.15625 170.058594 546.371094 Z M 170.039062 544.210938 C 169.933594 544.488281 169.894531 544.792969 169.945312 545.101562 C 169.886719 544.738281 169.933594 544.449219 170.039062 544.210938 Z M 170.039062 544.210938 " fill-opacity="1" fill-rule="evenodd"/></g></g></g></svg>