<svg xmlns="http://www.w3.org/2000/svg" xmlns:xlink="http://www.w3.org/1999/xlink" width="1080" zoomAndPan="magnify" viewBox="0 0 810 1012.49997" height="1350" preserveAspectRatio="xMidYMid meet" version="1.0"><defs><clipPath id="cbf766f0a6"><path d="M 0.199219 0 L 809.800781 0 L 809.800781 1012 L 0.199219 1012 Z M 0.199219 0 " clip-rule="nonzero"/></clipPath><clipPath id="5d33b675a5"><path d="M 192 548.644531 L 415 548.644531 L 415 687 L 192 687 Z M 192 548.644531 " clip-rule="nonzero"/></clipPath><clipPath id="bb4f0de1aa"><path d="M 4 303 L 397 303 L 397 499.5625 L 4 499.5625 Z M 4 303 " clip-rule="nonzero"/></clipPath><clipPath id="8279e77b8e"><path d="M 526 469 L 809.582031 469 L 809.582031 638 L 526 638 Z M 526 469 " clip-rule="nonzero"/></clipPath><clipPath id="7d8351049b"><rect x="0" width="810" y="0" height="1012"/></clipPath></defs><g clip-path="url(#cbf766f0a6)"><g transform="matrix(1, 0, 0, 1, 0.000000000000000028, 0)"><g clip-path="url(#7d8351049b)"><path fill="#e0c26f" d="M 585.769531 666.105469 C 585.558594 665.855469 585.355469 665.578125 585.160156 665.285156 C 584.433594 664.242188 583.742188 663.136719 583.125 662.507812 C 580.441406 659.734375 577.320312 657.335938 573.863281 655.59375 C 562.457031 649.851562 548.527344 651.273438 537.058594 655.953125 C 531.605469 658.175781 526.265625 661.375 522.917969 666.371094 C 515.867188 676.898438 519.851562 688.917969 528.210938 696.320312 C 536.546875 703.6875 549.089844 706.324219 558.851562 698.507812 C 565.859375 692.894531 569.113281 682.625 565.386719 674.214844 C 563.230469 669.339844 558.597656 665.632812 553.378906 664.054688 C 548.078125 662.445312 542.222656 663.03125 537.753906 666.554688 C 535.070312 668.675781 533.863281 671.320312 533.734375 673.976562 C 533.558594 677.785156 535.699219 681.738281 539.394531 684.246094 C 541.652344 685.777344 544.316406 686.808594 546.960938 687.441406 C 547.996094 687.683594 549.019531 687.804688 550.085938 687.746094 C 550.113281 687.738281 550.214844 687.730469 550.324219 687.710938 C 551.277344 687.980469 552.335938 687.648438 552.953125 686.800781 C 553.609375 685.894531 553.5 685.109375 553.324219 684.558594 C 553.148438 684.003906 552.796875 683.496094 552.171875 683.140625 C 551.894531 682.984375 551.460938 682.816406 550.898438 682.804688 C 550.613281 682.789062 550.039062 682.863281 549.785156 682.898438 C 549.785156 682.898438 549.78125 682.898438 549.78125 682.898438 C 549.738281 682.90625 549.683594 682.910156 549.664062 682.910156 C 549.128906 682.925781 548.609375 682.851562 548.085938 682.722656 C 545.996094 682.226562 543.894531 681.441406 542.121094 680.234375 C 538.589844 677.835938 537.078125 673.265625 540.757812 670.363281 C 543.964844 667.835938 548.179688 667.542969 551.976562 668.691406 C 555.855469 669.867188 559.351562 672.554688 560.953125 676.179688 C 563.804688 682.613281 561.183594 690.429688 555.820312 694.71875 C 548.039062 700.949219 538.066406 698.5625 531.421875 692.6875 C 524.8125 686.835938 521.371094 677.386719 526.941406 669.070312 C 529.75 664.878906 534.316406 662.3125 538.894531 660.441406 C 549.109375 656.269531 561.519531 654.808594 571.683594 659.925781 C 574.660156 661.421875 577.328125 663.496094 579.648438 665.882812 C 580.242188 666.5 580.886719 667.699219 581.613281 668.667969 C 582.433594 669.761719 583.375 670.613281 584.285156 671 C 584.949219 671.277344 585.773438 671.332031 586.65625 671.046875 C 587.285156 670.84375 588.027344 670.332031 588.445312 670.175781 C 590.359375 669.441406 592.4375 669.117188 594.472656 668.921875 C 599.875 668.410156 605.359375 669.238281 610.496094 670.933594 C 618.109375 673.433594 623.945312 678.5 627.722656 685.542969 C 628.730469 687.425781 630.15625 689.867188 629.695312 692.089844 C 629.628906 692.136719 629.382812 692.292969 629.214844 692.359375 C 628.710938 692.570312 628.109375 692.691406 627.449219 692.789062 C 624.144531 693.261719 619.878906 692.917969 618.070312 693.324219 C 608.789062 695.390625 603.832031 701.375 597.910156 708.148438 C 597.027344 709.152344 597.128906 710.683594 598.132812 711.566406 C 599.144531 712.445312 600.675781 712.34375 601.554688 711.339844 C 606.769531 705.382812 610.957031 699.871094 619.121094 698.054688 C 620.054688 697.84375 621.722656 697.90625 623.53125 697.878906 C 625.757812 697.84375 628.148438 697.722656 629.980469 697.214844 C 632.40625 696.535156 633.980469 695.152344 634.417969 693.203125 C 635.160156 689.875 633.511719 686.078125 631.992188 683.25 C 627.621094 675.082031 620.835938 669.226562 612.015625 666.324219 C 606.246094 664.425781 600.078125 663.515625 594.011719 664.09375 C 591.550781 664.332031 589.035156 664.757812 586.71875 665.640625 C 586.527344 665.714844 586.121094 665.925781 585.769531 666.105469 Z M 548.824219 684.28125 C 548.878906 684.171875 548.945312 684.070312 549.019531 683.960938 C 548.945312 684.0625 548.886719 684.171875 548.824219 684.28125 Z M 548.824219 684.28125 " fill-opacity="1" fill-rule="evenodd"/><path fill="#e0c26f" d="M 516.820312 642.964844 C 517.222656 643.359375 517.757812 643.621094 518.359375 643.667969 C 519.464844 643.75 520.027344 643.222656 520.332031 642.894531 C 520.863281 642.328125 521.160156 641.574219 520.902344 640.617188 C 520.84375 640.386719 520.734375 640.105469 520.523438 639.804688 C 520.386719 639.621094 519.914062 639.1875 519.683594 639.039062 C 519.507812 638.917969 519.324219 638.800781 519.140625 638.695312 C 518.503906 638.292969 517.851562 637.914062 517.1875 637.5625 C 515.398438 636.59375 513.535156 635.765625 511.636719 635.027344 C 505.976562 632.816406 500.003906 631.527344 493.910156 631.480469 C 487.875 631.433594 481.808594 632.675781 476.378906 635.359375 C 466.523438 640.238281 459.203125 649.988281 456.070312 660.414062 C 455.683594 661.695312 456.410156 663.050781 457.691406 663.4375 C 458.972656 663.816406 460.328125 663.089844 460.714844 661.808594 C 463.472656 652.628906 469.859375 643.996094 478.535156 639.703125 C 483.28125 637.351562 488.589844 636.289062 493.871094 636.328125 C 499.375 636.375 504.761719 637.546875 509.875 639.542969 C 511.589844 640.210938 513.269531 640.949219 514.882812 641.824219 C 515.460938 642.128906 516.023438 642.457031 516.570312 642.800781 C 516.652344 642.855469 516.742188 642.910156 516.820312 642.964844 Z M 516.125 641.074219 C 516.136719 640.394531 516.421875 639.851562 516.9375 639.425781 C 516.476562 639.832031 516.171875 640.410156 516.125 641.074219 Z M 517.589844 639.019531 C 517.859375 638.898438 518.226562 638.796875 518.714844 638.828125 C 518.3125 638.800781 517.933594 638.871094 517.589844 639.019531 Z M 517.589844 639.019531 " fill-opacity="1" fill-rule="evenodd"/><path fill="#e0c26f" d="M 200.183594 684.78125 C 201.585938 684.886719 202.808594 683.835938 202.910156 682.433594 C 203.015625 681.03125 201.964844 679.808594 200.5625 679.707031 C 196.65625 679.414062 194.292969 676.191406 193.878906 672.882812 C 193.472656 669.675781 194.996094 666.308594 199.003906 665.445312 C 200.894531 665.042969 202.925781 665.253906 204.753906 665.859375 C 209.910156 667.566406 213.542969 672.058594 215.085938 677.144531 C 216.621094 682.21875 216.101562 687.941406 212.722656 692.1875 C 209.449219 696.308594 203.835938 697.730469 198.746094 697.753906 C 190.871094 697.773438 182.886719 693.65625 177.683594 687.542969 C 172.609375 681.578125 170.183594 673.644531 173.421875 665.753906 C 176.773438 657.578125 186.136719 652.957031 194.34375 651.203125 C 199.015625 650.203125 204.175781 649.914062 208.871094 650.988281 C 215.3125 652.453125 220.292969 656.453125 225.132812 660.714844 C 230.46875 665.410156 235.644531 670.433594 241.953125 673.503906 C 246.394531 675.664062 251.488281 677.089844 256.40625 677.578125 C 258.777344 677.820312 261.097656 677.699219 263.386719 677.773438 C 265.289062 677.828125 267.171875 678.027344 269.042969 678.890625 C 271.820312 680.167969 275.867188 683.878906 278.019531 687.847656 C 279.183594 690.019531 279.894531 692.257812 278.886719 694.136719 C 278.273438 695.261719 276.828125 695.511719 275.390625 695.738281 C 273.171875 696.09375 270.773438 696.050781 269.152344 696.210938 C 262.355469 696.886719 256.570312 699.210938 251.042969 703.230469 C 245.015625 707.617188 239.847656 713.050781 233.386719 716.867188 C 221.703125 723.769531 207.398438 725.183594 194.71875 720.273438 C 190.015625 718.453125 185.960938 715.507812 181.847656 712.6875 C 177.355469 709.601562 172.789062 706.648438 167.445312 705.074219 C 160.136719 702.925781 152.75 704.25 145.328125 705.566406 C 138.726562 706.734375 132.09375 707.90625 125.460938 705.609375 C 118.289062 703.125 113.734375 698.265625 109.636719 692.894531 C 105.160156 687.007812 101.21875 680.527344 95.601562 675.308594 C 91.210938 671.234375 85.777344 668.863281 79.96875 667.644531 C 75.144531 666.640625 69.621094 666.640625 65.507812 663.605469 C 62.441406 661.339844 60.847656 657.882812 59.242188 654.390625 C 57.320312 650.210938 55.425781 645.964844 52.109375 642.8125 C 45.277344 636.335938 35.21875 634.5 26.316406 636.960938 C 21.695312 638.234375 17.3125 640.265625 12.945312 642.207031 C 12.253906 642.519531 11.316406 643.003906 10.363281 643.273438 C 10.164062 643.324219 9.964844 643.375 9.769531 643.394531 C 9.65625 643.410156 9.535156 643.480469 9.4375 643.410156 C 9.230469 643.273438 9.125 643.023438 9.015625 642.769531 C 8.78125 642.222656 8.648438 641.585938 8.554688 640.933594 C 8.320312 639.296875 8.363281 637.558594 8.339844 636.4375 C 8.175781 625.726562 14.347656 619.742188 22.4375 615.90625 C 31.253906 611.722656 42.277344 609.980469 50.871094 607.929688 C 54.964844 606.953125 59 605.753906 62.898438 604.171875 C 70.242188 601.191406 77.039062 597.042969 83.269531 592.175781 C 89.511719 587.300781 95.234375 581.808594 101.488281 576.960938 C 111.101562 569.523438 123.722656 562.203125 136.78125 558.710938 C 149.441406 555.328125 162.535156 555.542969 173.535156 563.148438 C 177.371094 565.796875 180.664062 569.199219 183.347656 572.996094 C 197.898438 593.613281 190.898438 625.640625 166.761719 635.667969 C 147.953125 643.488281 128.433594 627.625 128.078125 607.957031 C 128 603.582031 129.195312 599.054688 131.523438 595.339844 C 133.265625 592.574219 135.757812 590.324219 138.652344 588.808594 C 141.5625 587.277344 144.894531 586.402344 148.183594 586.296875 C 153.484375 586.132812 159.054688 588.246094 162.421875 592.445312 C 167.117188 598.316406 165.289062 607.445312 158.8125 611.21875 C 155.894531 612.917969 152.644531 613.273438 149.328125 613.308594 C 147.925781 613.332031 146.792969 614.484375 146.816406 615.886719 C 146.828125 617.285156 147.984375 618.417969 149.382812 618.402344 C 153.582031 618.355469 157.679688 617.769531 161.375 615.613281 C 170.460938 610.320312 172.988281 597.503906 166.390625 589.265625 C 162.042969 583.835938 154.878906 580.996094 148.019531 581.214844 C 143.976562 581.34375 139.871094 582.417969 136.285156 584.296875 C 132.597656 586.234375 129.429688 589.101562 127.210938 592.636719 C 124.363281 597.175781 122.898438 602.699219 122.992188 608.042969 C 123.402344 631.191406 146.585938 649.566406 168.71875 640.371094 C 195.808594 629.113281 203.84375 593.207031 187.503906 570.058594 C 184.480469 565.773438 180.757812 561.953125 176.429688 558.964844 C 166.578125 552.148438 155.242188 550.511719 143.839844 552.085938 C 127.253906 554.375 110.523438 563.539062 98.378906 572.941406 C 92.109375 577.785156 86.386719 583.289062 80.140625 588.160156 C 74.277344 592.738281 67.886719 596.652344 60.984375 599.453125 C 57.320312 600.941406 53.539062 602.066406 49.699219 602.976562 C 40.789062 605.097656 29.390625 606.96875 20.253906 611.308594 C 10.375 615.992188 3.054688 623.441406 3.253906 636.515625 C 3.28125 638.09375 3.246094 640.691406 3.742188 642.898438 C 4.207031 644.9375 5.152344 646.652344 6.574219 647.621094 C 7.800781 648.453125 9.285156 648.652344 10.839844 648.375 C 12.347656 648.113281 13.925781 647.34375 15.015625 646.859375 C 19.148438 645.015625 23.296875 643.074219 27.667969 641.863281 C 34.890625 639.871094 43.066406 641.253906 48.601562 646.503906 C 51.457031 649.207031 52.964844 652.929688 54.613281 656.515625 C 56.585938 660.800781 58.722656 664.914062 62.484375 667.695312 C 67.1875 671.175781 73.414062 671.480469 78.929688 672.632812 C 83.824219 673.652344 88.4375 675.601562 92.136719 679.039062 C 97.539062 684.046875 101.289062 690.324219 105.585938 695.972656 C 110.273438 702.128906 115.582031 707.582031 123.796875 710.417969 C 131.28125 713.007812 138.765625 711.898438 146.21875 710.574219 C 152.855469 709.402344 159.46875 708.035156 166.007812 709.957031 C 170.832031 711.371094 174.917969 714.097656 178.964844 716.878906 C 183.40625 719.925781 187.804688 723.058594 192.882812 725.019531 C 207.015625 730.492188 222.957031 728.941406 235.976562 721.25 C 242.582031 717.351562 247.875 711.828125 254.039062 707.34375 C 258.804688 703.878906 263.785156 701.859375 269.65625 701.277344 C 271.75 701.070312 275.027344 701.140625 277.753906 700.449219 C 280.222656 699.824219 282.265625 698.585938 283.363281 696.550781 C 285.140625 693.257812 284.550781 689.234375 282.492188 685.429688 C 279.796875 680.449219 274.660156 675.878906 271.179688 674.269531 C 266.503906 672.113281 261.828125 673.011719 256.914062 672.519531 C 252.578125 672.085938 248.09375 670.828125 244.183594 668.925781 C 238.277344 666.058594 233.492188 661.292969 228.5 656.894531 C 223.011719 652.070312 217.289062 647.6875 210.003906 646.019531 C 204.601562 644.789062 198.660156 645.074219 193.273438 646.226562 C 183.546875 648.3125 172.683594 654.125 168.710938 663.816406 C 164.703125 673.601562 167.53125 683.449219 173.8125 690.835938 C 179.960938 698.074219 189.445312 702.871094 198.761719 702.839844 C 205.335938 702.820312 212.472656 700.683594 216.707031 695.355469 C 221.132812 689.789062 221.972656 682.320312 219.953125 675.664062 C 217.9375 669.027344 213.085938 663.253906 206.355469 661.027344 C 203.679688 660.144531 200.703125 659.875 197.9375 660.472656 C 190.878906 661.980469 188.121094 667.867188 188.828125 673.515625 C 189.519531 679.058594 193.636719 684.289062 200.183594 684.78125 Z M 200.183594 684.78125 " fill-opacity="1" fill-rule="evenodd"/><g clip-path="url(#5d33b675a5)"><path fill="#e0c26f" d="M 249.328125 616.183594 C 249.328125 616.183594 250.414062 616.589844 250.820312 616.667969 C 251.46875 616.804688 252.007812 616.71875 252.402344 616.589844 C 252.976562 616.390625 253.410156 616.046875 253.730469 615.59375 C 254.058594 615.136719 254.335938 614.496094 254.195312 613.574219 C 253.980469 612.183594 252.679688 611.230469 251.289062 611.445312 C 251.261719 611.445312 251.226562 611.453125 251.199219 611.460938 C 250.800781 611.332031 250.335938 611.1875 250.09375 611.152344 C 248.28125 610.933594 246.574219 610.261719 244.945312 609.429688 C 240.660156 607.238281 237.039062 603.839844 235.5 599.183594 C 232.5625 590.28125 239.671875 583.359375 248.238281 582.339844 C 261.011719 580.824219 270.757812 588.515625 275.121094 598.679688 C 279.511719 608.90625 278.515625 621.691406 269.550781 630.335938 C 260.304688 639.246094 246.300781 639.859375 234.625 636.023438 C 212.929688 628.898438 192.050781 606.007812 198.371094 581.886719 C 199.332031 578.214844 200.824219 574.640625 202.839844 571.425781 C 210.429688 559.265625 223.316406 554.398438 236.894531 554.097656 C 250.835938 553.800781 265.53125 558.296875 276.359375 565 C 284.167969 569.824219 289.878906 576.917969 296.492188 583.128906 C 305.820312 591.898438 316.015625 599.398438 328.417969 603.097656 C 341.078125 606.875 355.835938 606.484375 369.683594 608.164062 C 382.699219 609.738281 394.917969 613.167969 403.386719 624.617188 C 405.214844 627.085938 406.75 629.804688 407.824219 632.679688 C 408.707031 635.042969 409.460938 638.875 409.050781 642.207031 C 408.738281 644.71875 407.769531 647.011719 404.964844 647.238281 C 400.816406 647.578125 396.390625 645.144531 392.578125 643.835938 C 381.511719 640.058594 368.375 635.488281 356.898438 640.378906 C 350.257812 643.203125 346.800781 648.851562 343.691406 654.851562 C 341.050781 659.941406 338.710938 665.304688 333.855469 668.507812 C 330.042969 671.027344 326.085938 669.582031 322.101562 668.121094 C 315.839844 665.832031 308.785156 662.90625 301.96875 664.292969 C 295.636719 665.589844 292.917969 670.464844 290.277344 675.203125 C 288.4375 678.511719 286.683594 681.804688 281.925781 681.726562 C 280.523438 681.707031 279.363281 682.832031 279.339844 684.242188 C 279.320312 685.640625 280.445312 686.800781 281.847656 686.824219 C 288.941406 686.929688 291.980469 682.605469 294.726562 677.679688 C 296.667969 674.191406 298.328125 670.234375 302.988281 669.28125 C 308.886719 668.082031 314.933594 670.917969 320.355469 672.90625 C 325.878906 674.925781 331.371094 676.242188 336.660156 672.753906 C 342.246094 669.070312 345.171875 663.054688 348.207031 657.199219 C 350.777344 652.246094 353.410156 647.386719 358.890625 645.058594 C 369.214844 640.667969 380.976562 645.253906 390.925781 648.652344 C 395.359375 650.167969 400.566406 652.703125 405.386719 652.3125 C 409.953125 651.933594 412.449219 649.152344 413.566406 645.410156 C 414.957031 640.785156 413.9375 634.484375 412.601562 630.898438 C 411.355469 627.578125 409.582031 624.4375 407.476562 621.59375 C 398.105469 608.910156 384.707031 604.855469 370.296875 603.113281 C 356.734375 601.46875 342.265625 601.921875 329.878906 598.222656 C 318.242188 594.75 308.722656 587.640625 299.976562 579.421875 C 293.117188 572.976562 287.132812 565.675781 279.035156 560.671875 C 267.445312 553.5 251.703125 548.691406 236.78125 549.011719 C 221.488281 549.34375 207.078125 555.03125 198.519531 568.726562 C 196.242188 572.378906 194.535156 576.425781 193.445312 580.597656 C 186.457031 607.289062 209.023438 632.976562 233.03125 640.863281 C 246.445312 645.265625 262.46875 644.234375 273.078125 634.003906 C 283.660156 623.796875 284.976562 608.742188 279.804688 596.671875 C 274.59375 584.539062 262.890625 575.472656 247.640625 577.289062 C 235.878906 578.683594 226.632812 588.566406 230.660156 600.777344 C 232.625 606.71875 237.152344 611.167969 242.628906 613.964844 C 244.738281 615.046875 246.972656 615.871094 249.328125 616.183594 Z M 249.296875 613.054688 C 249.148438 613.453125 249.09375 613.894531 249.164062 614.339844 C 249.078125 613.8125 249.148438 613.394531 249.296875 613.054688 Z M 249.296875 613.054688 " fill-opacity="1" fill-rule="evenodd"/></g><path fill="#e0c26f" d="M 408.550781 753.484375 C 407.230469 753.273438 405.988281 754.175781 405.78125 755.496094 C 405.570312 756.820312 406.476562 758.058594 407.800781 758.269531 C 408.972656 758.460938 409.878906 759.320312 410.621094 760.3125 C 411.5625 761.566406 412.210938 763.082031 412.578125 764.359375 C 414.4375 770.859375 412.871094 778.070312 406.964844 781.929688 C 402.917969 784.570312 398.03125 784.523438 393.503906 783.035156 C 388.746094 781.46875 384.359375 778.292969 381.59375 774.605469 C 374.882812 765.660156 373.851562 752.65625 378.792969 742.667969 C 383.335938 733.5 392.71875 729.515625 402.476562 728.464844 C 423.019531 726.246094 442.878906 739.703125 447.171875 760.210938 C 451.785156 782.238281 437.640625 804.15625 415.664062 809.105469 C 405.71875 811.347656 395.164062 809.347656 385.898438 805.410156 C 374.460938 800.554688 365.757812 791.695312 356.835938 783.222656 C 347.429688 774.289062 337.789062 765.773438 324.96875 762.101562 C 312.339844 758.480469 296.945312 761.117188 284.894531 765.808594 C 282.191406 766.867188 277.851562 769.332031 273.84375 770.046875 C 271.925781 770.382812 270.074219 770.355469 268.796875 768.953125 C 267.386719 767.402344 266.796875 765.238281 266.585938 762.949219 C 266.21875 758.960938 267.054688 754.5625 267.820312 751.410156 C 271.085938 738.042969 281.242188 727.617188 294.207031 723.230469 C 298.492188 721.789062 302.980469 721.046875 307.21875 719.792969 C 311.886719 718.40625 316.257812 716.417969 319.867188 712.5625 C 322.558594 709.6875 325.097656 706.699219 327.886719 704.164062 C 331.6875 700.691406 335.953125 698.074219 341.890625 698.136719 C 345.488281 698.171875 349.40625 699.660156 353.320312 700.792969 C 357.957031 702.128906 362.566406 702.964844 366.714844 701.53125 C 369.363281 700.617188 371.554688 698.828125 373.511719 696.734375 C 375.195312 694.929688 376.699219 692.910156 378.265625 691.234375 C 381.742188 687.515625 385.863281 684.714844 390.914062 683.648438 C 396.613281 682.449219 402.632812 683.019531 408.28125 684.265625 C 414.285156 685.597656 420.164062 687.621094 426.222656 685.214844 C 431.714844 683.039062 435.320312 678.066406 439.328125 674.019531 C 443.808594 669.488281 449.199219 666.410156 455.636719 666 C 464.21875 665.449219 471.351562 669.660156 477.4375 675.3125 C 481.496094 679.089844 485.796875 684.390625 491.238281 686.207031 C 494.332031 687.234375 497.265625 686.871094 500.125 685.941406 C 502.527344 685.15625 504.863281 683.957031 507.210938 683.109375 C 511.554688 681.535156 516.300781 681.414062 520.800781 682.347656 C 522.109375 682.625 523.398438 681.785156 523.667969 680.476562 C 523.945312 679.164062 523.105469 677.882812 521.789062 677.605469 C 516.414062 676.476562 510.753906 676.675781 505.5625 678.546875 C 503.265625 679.371094 500.980469 680.566406 498.628906 681.324219 C 496.738281 681.941406 494.804688 682.28125 492.769531 681.601562 C 487.957031 679.996094 484.332031 675.101562 480.738281 671.761719 C 473.667969 665.191406 465.296875 660.519531 455.324219 661.160156 C 447.664062 661.652344 441.210938 665.21875 435.882812 670.609375 C 432.332031 674.195312 429.296875 678.777344 424.441406 680.707031 C 419.324219 682.734375 414.386719 680.648438 409.324219 679.527344 C 403.019531 678.140625 396.28125 677.5625 389.910156 678.90625 C 383.863281 680.179688 378.886719 683.46875 374.71875 687.925781 C 373.152344 689.601562 371.648438 691.621094 369.96875 693.425781 C 368.5625 694.929688 367.039062 696.292969 365.132812 696.949219 C 361.886719 698.070312 358.292969 697.179688 354.667969 696.128906 C 350.324219 694.875 345.9375 693.332031 341.945312 693.28125 C 330.128906 693.167969 323.636719 701.445312 316.328125 709.246094 C 313.351562 712.433594 309.699219 714 305.839844 715.144531 C 301.542969 716.410156 296.996094 717.171875 292.65625 718.640625 C 278.117188 723.558594 266.773438 735.269531 263.109375 750.257812 C 262.234375 753.84375 261.34375 758.855469 261.757812 763.386719 C 262.070312 766.785156 263.113281 769.921875 265.214844 772.222656 C 267.648438 774.898438 271.046875 775.46875 274.691406 774.816406 C 279.023438 774.050781 283.730469 771.46875 286.65625 770.328125 C 297.78125 766 311.976562 763.421875 323.636719 766.765625 C 335.679688 770.214844 344.65625 778.34375 353.503906 786.742188 C 362.835938 795.613281 372.027344 804.792969 384 809.878906 C 394.1875 814.195312 405.800781 816.304688 416.726562 813.835938 C 441.28125 808.304688 457.074219 783.828125 451.914062 759.210938 C 447.109375 736.28125 424.9375 721.164062 401.957031 723.644531 C 390.546875 724.871094 379.757812 729.800781 374.449219 740.515625 C 368.71875 752.089844 369.941406 767.152344 377.714844 777.515625 C 381.695312 782.828125 388.488281 787.269531 395.488281 788.539062 C 400.371094 789.417969 405.339844 788.773438 409.617188 785.988281 C 417.363281 780.925781 419.675781 771.550781 417.242188 763.03125 C 416.625 760.878906 415.398438 758.25 413.617188 756.34375 C 412.234375 754.855469 410.523438 753.796875 408.550781 753.484375 Z M 408.550781 753.484375 " fill-opacity="1" fill-rule="evenodd"/><path fill="#e0c26f" d="M 557.933594 698.734375 C 557.804688 698.453125 557.625 698.203125 557.386719 697.980469 C 555.691406 696.40625 554.1875 697.742188 553.996094 697.925781 C 553.636719 698.257812 552.777344 699.1875 553.425781 700.683594 C 553.527344 700.910156 554.519531 702.265625 554.964844 702.734375 C 555.800781 703.585938 556.804688 704.277344 557.847656 704.832031 C 560.679688 706.359375 563.878906 707.078125 567.066406 707.253906 C 571.390625 707.492188 575.898438 706.636719 580.367188 706.09375 C 584.304688 705.621094 588.207031 705.375 591.902344 706.78125 C 594.132812 707.625 596.519531 708.980469 598.042969 710.839844 C 599.597656 712.722656 600.742188 714.851562 602.042969 716.839844 C 603.578125 719.183594 605.3125 721.359375 607.847656 723 C 610.734375 724.871094 614.027344 725.609375 617.40625 726.140625 C 620.277344 726.578125 623.214844 726.859375 625.898438 727.867188 C 637.964844 732.421875 644.152344 744.875 645.96875 756.949219 C 646.300781 759.125 647.0625 762.535156 647.097656 765.632812 C 647.117188 767.0625 647.027344 768.417969 646.484375 769.421875 C 646.269531 769.359375 645.964844 769.265625 645.773438 769.183594 C 645.277344 768.96875 644.824219 768.710938 644.453125 768.527344 C 640.234375 766.425781 636.148438 764.121094 631.789062 762.296875 C 620.027344 757.363281 606.964844 754.855469 594.65625 759.375 C 586.589844 762.335938 580.65625 767.902344 575.246094 774.125 C 570.175781 779.957031 565.582031 786.363281 559.859375 791.390625 C 553.25 797.199219 544.898438 800.480469 536.773438 803.574219 C 526.738281 807.390625 515.859375 811.699219 505.007812 809.050781 C 492.539062 806.007812 482.101562 794.921875 476.941406 783.546875 C 473.09375 775.082031 472.441406 765.769531 473.859375 756.636719 C 474.765625 750.792969 476.738281 745.121094 479.960938 740.144531 C 481.855469 737.214844 484.15625 734.53125 486.90625 732.382812 C 501.550781 720.996094 521.378906 730.039062 530.066406 744.332031 C 535.253906 752.855469 538.003906 764.046875 532.351562 773 C 530.082031 776.601562 526.652344 779.257812 522.707031 780.808594 C 519.390625 782.117188 515.722656 782.707031 512.171875 782.308594 C 507.691406 781.804688 503.347656 779.039062 500.59375 775.285156 C 497.949219 771.671875 496.785156 767.089844 498.683594 762.683594 C 501.25 756.71875 509.46875 756.914062 513.582031 761.136719 C 514.511719 762.101562 516.050781 762.121094 517.003906 761.183594 C 517.96875 760.25 517.988281 758.710938 517.050781 757.753906 C 510.726562 751.261719 498.179688 751.59375 494.230469 760.765625 C 491.613281 766.832031 493.042969 773.171875 496.683594 778.144531 C 500.222656 782.984375 505.855469 786.484375 511.636719 787.128906 C 515.96875 787.617188 520.441406 786.917969 524.488281 785.324219 C 529.390625 783.394531 533.625 780.0625 536.453125 775.582031 C 543.109375 765.050781 540.308594 751.84375 534.210938 741.8125 C 524.121094 725.21875 500.933594 715.335938 483.933594 728.558594 C 480.746094 731.035156 478.082031 734.125 475.890625 737.507812 C 472.300781 743.058594 470.082031 749.375 469.066406 755.890625 C 467.507812 765.957031 468.285156 776.214844 472.523438 785.554688 C 478.265625 798.199219 490 810.378906 503.855469 813.761719 C 515.667969 816.648438 527.566406 812.257812 538.492188 808.109375 C 547.164062 804.8125 556.015625 801.226562 563.058594 795.03125 C 568.945312 789.859375 573.695312 783.296875 578.910156 777.304688 C 583.78125 771.707031 589.054688 766.59375 596.324219 763.929688 C 607.46875 759.835938 619.269531 762.304688 629.917969 766.769531 C 634.175781 768.554688 638.167969 770.8125 642.289062 772.863281 C 643.292969 773.367188 644.796875 774.152344 646.148438 774.300781 C 647.738281 774.480469 649.195312 774.023438 650.246094 772.53125 C 651.480469 770.789062 651.976562 768.289062 651.941406 765.578125 C 651.910156 762.242188 651.121094 758.5625 650.769531 756.222656 C 648.695312 742.476562 641.347656 728.511719 627.605469 723.332031 C 624.617188 722.207031 621.351562 721.839844 618.152344 721.347656 C 615.453125 720.925781 612.789062 720.425781 610.476562 718.925781 C 608.546875 717.679688 607.269531 715.976562 606.105469 714.1875 C 604.703125 712.054688 603.460938 709.78125 601.792969 707.761719 C 599.746094 705.273438 596.609375 703.375 593.625 702.246094 C 589.191406 700.5625 584.507812 700.710938 579.78125 701.28125 C 575.601562 701.789062 571.382812 702.636719 567.335938 702.414062 C 564.847656 702.269531 562.347656 701.75 560.136719 700.5625 C 559.527344 700.238281 558.929688 699.851562 558.449219 699.355469 C 558.335938 699.234375 558.105469 698.949219 557.933594 698.734375 Z M 557.933594 698.734375 " fill-opacity="1" fill-rule="evenodd"/><path fill="#e0c26f" d="M 477.648438 734.917969 C 477.816406 735.289062 478.089844 735.621094 478.441406 735.878906 C 479.527344 736.660156 481.042969 736.410156 481.824219 735.324219 C 482.332031 734.621094 482.703125 733.324219 481.585938 731.976562 C 480.910156 731.148438 478.71875 729.71875 478.441406 729.542969 C 475.199219 727.523438 471.609375 725.992188 467.933594 724.988281 C 462.410156 723.476562 455.867188 722.738281 449.882812 723.726562 C 443.542969 724.769531 437.828125 727.730469 434.34375 733.546875 C 433.652344 734.695312 434.027344 736.183594 435.171875 736.878906 C 436.324219 737.5625 437.808594 737.1875 438.5 736.042969 C 441.21875 731.515625 445.734375 729.320312 450.675781 728.503906 C 455.96875 727.628906 461.757812 728.328125 466.652344 729.664062 C 469.878906 730.546875 473.03125 731.882812 475.871094 733.65625 C 476.007812 733.738281 477.171875 734.578125 477.648438 734.917969 Z M 477.65625 732.890625 C 477.714844 732.753906 477.789062 732.621094 477.886719 732.496094 C 477.789062 732.621094 477.714844 732.753906 477.65625 732.890625 Z M 477.65625 732.890625 " fill-opacity="1" fill-rule="evenodd"/><path fill="#e0c26f" d="M 551.78125 654.757812 C 552.789062 655.632812 554.320312 655.523438 555.203125 654.515625 C 556.078125 653.503906 555.96875 651.972656 554.960938 651.09375 C 551.902344 648.441406 548.390625 646.507812 544.675781 644.792969 C 534.914062 640.300781 522.652344 637.230469 512.367188 641.886719 C 498.148438 648.332031 490.621094 665.789062 490.332031 680.601562 C 490.304688 681.941406 491.367188 683.046875 492.703125 683.074219 C 494.046875 683.101562 495.152344 682.035156 495.175781 680.703125 C 495.433594 667.597656 501.792969 652 514.367188 646.304688 C 523.378906 642.226562 534.09375 645.253906 542.648438 649.199219 C 545.9375 650.71875 549.070312 652.40625 551.78125 654.757812 Z M 551.78125 654.757812 " fill-opacity="1" fill-rule="evenodd"/><path fill="#e0c26f" d="M 560.007812 255.355469 C 559.492188 254.421875 559.015625 253.484375 558.5625 252.882812 C 556.542969 250.160156 554.253906 247.652344 551.71875 245.410156 C 540.058594 235.078125 525.109375 229.21875 509.457031 229.910156 C 488.683594 230.832031 466.238281 244.285156 462.863281 266.253906 C 460.1875 283.695312 469.226562 305.078125 484.582031 314.367188 C 492.097656 318.910156 502.03125 319.167969 511.230469 316.386719 C 520.289062 313.648438 528.546875 307.976562 532.976562 301.019531 C 544.242188 283.3125 537.292969 257.4375 514.554688 254.46875 C 510.503906 253.9375 506.339844 254.253906 502.464844 255.628906 C 491.148438 259.644531 484.785156 272.023438 490.386719 283.234375 C 493.265625 288.992188 499.027344 292.398438 505.105469 293.769531 C 505.480469 293.859375 510.859375 294.59375 511.914062 294.621094 C 515.148438 294.699219 515.351562 291.429688 515.289062 290.980469 C 515.050781 289.339844 513.585938 288.167969 511.957031 288.265625 C 511.203125 288.179688 506.789062 287.65625 506.507812 287.59375 C 502.253906 286.628906 498.078125 284.429688 496.058594 280.398438 C 492.222656 272.722656 496.828125 264.355469 504.582031 261.601562 C 507.507812 260.566406 510.671875 260.351562 513.738281 260.75 C 531.621094 263.089844 536.488281 283.683594 527.632812 297.617188 C 523.929688 303.429688 516.945312 308.039062 509.394531 310.324219 C 501.96875 312.566406 493.933594 312.609375 487.863281 308.941406 C 474.550781 300.886719 466.804688 282.328125 469.128906 267.21875 C 472.050781 248.230469 491.789062 237.042969 509.742188 236.246094 C 523.734375 235.628906 537.082031 240.917969 547.511719 250.152344 C 549.726562 252.109375 551.710938 254.289062 553.476562 256.65625 C 553.9375 257.285156 554.414062 258.394531 554.992188 259.324219 C 555.71875 260.492188 556.605469 261.441406 557.5 261.945312 C 558.269531 262.382812 559.527344 262.65625 561.050781 262.078125 C 562.65625 261.476562 565.472656 259.234375 566.15625 258.878906 C 571.136719 256.328125 576.507812 255.585938 582.0625 255.707031 C 605.113281 256.238281 628.835938 267.167969 640.527344 287.707031 C 641.535156 289.488281 643.140625 292.226562 644.007812 295.003906 C 644.585938 296.863281 645.082031 298.777344 643.875 300.070312 C 643.015625 300.984375 641.757812 301.425781 640.472656 301.78125 C 638.664062 302.277344 636.761719 302.535156 635.15625 302.871094 C 628.472656 304.273438 621.457031 305.894531 615.660156 309.660156 C 607.355469 315.066406 601.25 323.003906 594.816406 330.539062 C 588.933594 337.433594 582.765625 344 573.796875 347.3125 C 568.550781 349.253906 562.789062 349.679688 557.285156 348.722656 C 555.488281 348.402344 553.226562 347.5 551.074219 347.144531 C 548.9375 346.808594 546.875 346.949219 545.109375 347.871094 C 543.125 348.910156 541.519531 350.636719 540.171875 352.683594 C 538.648438 355.007812 537.488281 357.769531 536.089844 359.738281 C 532.066406 365.382812 525.4375 370.382812 518.425781 371.320312 C 516.6875 371.550781 515.464844 373.148438 515.695312 374.875 C 515.925781 376.613281 517.523438 377.835938 519.257812 377.605469 C 527.945312 376.445312 536.273438 370.410156 541.253906 363.417969 C 542.488281 361.6875 543.558594 359.375 544.816406 357.230469 C 545.703125 355.707031 546.632812 354.226562 548.035156 353.5 C 548.875 353.058594 549.902344 353.339844 550.933594 353.578125 C 552.792969 354.015625 554.652344 354.695312 556.195312 354.972656 C 562.796875 356.113281 569.703125 355.589844 575.992188 353.261719 C 586.023438 349.546875 593.054688 342.371094 599.636719 334.660156 C 605.679688 327.578125 611.328125 320.046875 619.117188 314.976562 C 624.265625 311.636719 630.53125 310.316406 636.449219 309.074219 C 638.566406 308.632812 641.15625 308.285156 643.460938 307.488281 C 645.410156 306.816406 647.171875 305.832031 648.503906 304.394531 C 650.769531 301.976562 651.277344 298.714844 650.601562 295.257812 C 649.839844 291.324219 647.484375 287.113281 646.039062 284.582031 C 633.25 262.105469 607.417969 249.949219 582.214844 249.371094 C 575.585938 249.222656 569.207031 250.195312 563.269531 253.246094 C 562.878906 253.4375 561.195312 254.554688 560.007812 255.355469 Z M 560.007812 255.355469 " fill-opacity="1" fill-rule="evenodd"/><path fill="#e0c26f" d="M 476.367188 342.191406 C 475.003906 342.199219 473.746094 343.105469 473.34375 344.496094 C 472.972656 345.808594 473.390625 346.667969 473.746094 347.214844 C 474.214844 347.933594 474.90625 348.457031 475.90625 348.632812 C 476.289062 348.695312 476.792969 348.714844 477.386719 348.554688 C 477.589844 348.5 478.078125 348.296875 478.378906 348.164062 C 478.847656 348.183594 479.320312 348.289062 479.769531 348.429688 C 482.058594 349.140625 484.351562 350.488281 486.117188 352.089844 C 490.8125 356.34375 493.507812 364.125 489.324219 369.523438 C 486.285156 373.449219 481.914062 374.449219 477.574219 373.820312 C 472.769531 373.128906 467.976562 370.53125 464.617188 367.324219 C 455.160156 358.304688 452.945312 343.617188 459.035156 332.054688 C 467.265625 316.4375 487.542969 313.859375 500.339844 325.574219 C 511.175781 335.5 516.316406 351.363281 515.226562 365.816406 C 514.738281 372.242188 512.710938 378.925781 508.507812 383.921875 C 504.300781 388.929688 497.910156 391.828125 491.761719 393.644531 C 477.609375 397.835938 460.210938 396.515625 447.265625 389.238281 C 442.027344 386.289062 437.101562 382.230469 433.308594 377.542969 C 432.144531 376.105469 431.1875 374.554688 430.207031 373.015625 C 429.914062 372.554688 429.132812 371.292969 428.425781 370.78125 C 427.6875 370.25 426.898438 370.035156 426.15625 370.0625 C 425.429688 370.082031 424.339844 370.425781 423.238281 371.234375 C 422.355469 371.886719 420.652344 373.414062 420.652344 373.414062 C 418.277344 374.671875 415.601562 375.265625 412.953125 375.59375 C 399.054688 377.355469 383.15625 373.695312 370.511719 368.050781 C 359.125 362.972656 349.925781 354.8125 343.242188 344.308594 C 341.957031 342.296875 340.761719 340.214844 339.742188 338.0625 C 344.332031 338.40625 348.984375 337.894531 353.46875 336.875 C 365.65625 334.09375 376.234375 328.253906 385.117188 319.496094 C 393.535156 311.191406 401.234375 300.851562 412.277344 295.851562 C 417.132812 293.65625 421.980469 293.859375 427.070312 292.867188 C 432.863281 291.730469 436.914062 288.1875 440.191406 283.765625 C 443.027344 279.953125 445.253906 275.46875 447.832031 271.773438 C 452.101562 265.679688 459.035156 261.777344 466.523438 263.074219 C 468.242188 263.375 469.878906 262.210938 470.183594 260.492188 C 470.484375 258.765625 469.320312 257.125 467.601562 256.824219 C 457.652344 255.105469 448.320312 260.03125 442.640625 268.140625 C 440.09375 271.792969 437.898438 276.222656 435.105469 279.988281 C 432.765625 283.144531 429.992188 285.828125 425.855469 286.644531 C 420.28125 287.734375 414.988281 287.664062 409.664062 290.082031 C 397.949219 295.382812 389.601562 306.167969 380.65625 314.984375 C 372.636719 322.898438 363.074219 328.179688 352.050781 330.699219 C 348.117188 331.59375 344.023438 332.054688 339.992188 331.726562 C 339.300781 331.664062 336.855469 331.113281 335.570312 331.308594 C 334.308594 331.496094 333.441406 332.097656 332.917969 332.78125 C 332.296875 333.585938 331.960938 334.746094 332.183594 336.09375 C 332.351562 337.175781 333.023438 338.550781 333.265625 339.109375 C 334.539062 342.113281 336.144531 344.964844 337.890625 347.710938 C 345.253906 359.269531 355.394531 368.246094 367.933594 373.847656 C 381.578125 379.933594 398.753906 383.789062 413.75 381.886719 C 417.203125 381.449219 420.671875 380.601562 423.746094 378.941406 C 424.089844 378.757812 424.863281 378.152344 425.589844 377.558594 C 426.457031 378.914062 427.351562 380.261719 428.378906 381.53125 C 432.660156 386.828125 438.226562 391.429688 444.164062 394.761719 C 458.539062 402.84375 477.847656 404.375 493.558594 399.722656 C 500.863281 397.570312 508.359375 393.953125 513.355469 388.007812 C 518.410156 382 520.960938 374.015625 521.546875 366.296875 C 522.777344 349.972656 516.859375 332.105469 504.621094 320.898438 C 488.746094 306.371094 463.632812 309.738281 453.425781 329.101562 C 446.03125 343.140625 448.761719 360.960938 460.246094 371.914062 C 464.492188 375.972656 470.582031 379.21875 476.667969 380.09375 C 483.21875 381.042969 489.738281 379.332031 494.339844 373.402344 C 500.542969 365.390625 497.34375 353.703125 490.378906 347.394531 C 487.941406 345.1875 484.796875 343.351562 481.65625 342.378906 C 480.355469 341.980469 478.980469 341.757812 477.625 341.847656 C 477.351562 341.863281 476.828125 342.03125 476.367188 342.191406 Z M 479.539062 345.753906 C 479.523438 345.90625 479.496094 346.066406 479.441406 346.234375 C 479.488281 346.074219 479.523438 345.914062 479.539062 345.753906 Z M 479.539062 345.753906 " fill-opacity="1" fill-rule="evenodd"/><path fill="#e0c26f" d="M 227.523438 279.210938 C 227.335938 278.625 227 277.507812 226.902344 276.996094 C 226.078125 272.839844 226.320312 268.1875 228.0625 264.285156 C 230.15625 259.617188 234.011719 256.816406 238.421875 254.972656 C 243.308594 252.933594 248.882812 252.046875 253.90625 251.402344 C 267.429688 249.648438 280.332031 247.34375 291.878906 239.570312 C 300.175781 233.980469 307.09375 226.535156 314.558594 220.011719 C 321.496094 213.949219 328.90625 208.703125 338.679688 207.019531 C 356.5 203.9375 374.515625 212.648438 382.324219 229.140625 C 391.160156 247.820312 376.6875 268.601562 357.308594 272.101562 C 349.941406 273.441406 341.566406 272.074219 336.4375 266.28125 C 331.875 261.121094 329.347656 252.25 330.457031 244.523438 C 331.144531 239.722656 333.265625 235.335938 337.472656 232.808594 C 342.632812 229.707031 349.417969 231.167969 354.605469 234.667969 C 359.734375 238.136719 363.492188 243.746094 362.179688 249.707031 C 361.808594 251.417969 362.890625 253.113281 364.601562 253.484375 C 366.3125 253.855469 367.996094 252.773438 368.375 251.0625 C 370.238281 242.59375 365.449219 234.351562 358.15625 229.414062 C 350.925781 224.53125 341.410156 223.050781 334.210938 227.375 C 328.328125 230.902344 325.136719 236.902344 324.179688 243.621094 C 322.816406 253.171875 326.050781 264.109375 331.6875 270.480469 C 338.289062 277.941406 348.960938 280.0625 358.433594 278.339844 C 381.730469 274.132812 398.683594 248.882812 388.050781 226.429688 C 379.027344 207.355469 358.210938 197.210938 337.597656 200.773438 C 326.609375 202.667969 318.191406 208.421875 310.390625 215.234375 C 303.125 221.589844 296.417969 228.875 288.335938 234.316406 C 277.636719 241.519531 265.628906 243.488281 253.089844 245.109375 C 247.535156 245.835938 241.382812 246.871094 235.976562 249.125 C 230.09375 251.585938 225.078125 255.460938 222.277344 261.691406 C 220 266.769531 219.609375 272.8125 220.683594 278.234375 C 220.914062 279.378906 221.257812 281.078125 221.957031 282.410156 C 222.746094 283.925781 223.953125 285.023438 225.511719 285.457031 C 226.671875 285.785156 227.914062 285.714844 229.144531 285.359375 C 230.234375 285.050781 231.335938 284.472656 232.246094 284.09375 C 234.507812 283.136719 236.828125 282.382812 239.210938 281.824219 C 245.929688 280.238281 252.914062 281.480469 258.769531 285.15625 C 264.503906 288.753906 269.140625 293.59375 273.914062 298.273438 C 279.089844 303.339844 284.417969 308.234375 291.132812 311.53125 C 300.695312 316.234375 313.148438 319.613281 323.898438 318.714844 C 326.671875 318.496094 329.230469 317.503906 331.8125 316.582031 C 333.699219 315.898438 335.59375 315.242188 337.703125 315.410156 C 340.300781 315.625 342.753906 316.792969 345.210938 318 C 348.257812 319.488281 351.296875 321.054688 354.460938 321.773438 C 361.0625 323.261719 368.597656 323.492188 375.289062 322.402344 C 377.582031 322.03125 380.027344 320.558594 382.191406 320.277344 C 383.917969 320.039062 385.140625 318.441406 384.902344 316.714844 C 384.671875 314.976562 383.078125 313.753906 381.339844 313.992188 C 379.132812 314.285156 376.617188 315.765625 374.261719 316.148438 C 368.359375 317.113281 361.695312 316.910156 355.855469 315.589844 C 353.160156 314.976562 350.597656 313.578125 348 312.308594 C 344.8125 310.75 341.585938 309.367188 338.21875 309.09375 C 335.179688 308.84375 332.40625 309.632812 329.675781 310.609375 C 327.621094 311.34375 325.589844 312.222656 323.375 312.40625 C 313.714844 313.203125 302.53125 310.078125 293.925781 305.847656 C 287.828125 302.84375 283.050781 298.34375 278.355469 293.742188 C 273.261719 288.753906 268.269531 283.632812 262.148438 279.785156 C 254.84375 275.195312 246.132812 273.679688 237.757812 275.65625 C 235.03125 276.292969 232.371094 277.164062 229.785156 278.242188 C 229.25 278.472656 228.648438 278.785156 228.011719 279.042969 C 227.886719 279.105469 227.691406 279.15625 227.523438 279.210938 Z M 227.523438 279.210938 " fill-opacity="1" fill-rule="evenodd"/><path fill="#e0c26f" d="M 375.332031 266.226562 C 375.304688 266.527344 375.144531 268.515625 375.207031 269.265625 C 375.394531 271.808594 375.933594 274.363281 376.722656 276.789062 C 380.027344 286.882812 390.824219 298.625 401.917969 300.480469 C 403.644531 300.769531 405.277344 299.601562 405.570312 297.875 C 405.851562 296.144531 404.683594 294.515625 402.964844 294.230469 C 393.96875 292.722656 385.425781 283.003906 382.75 274.824219 C 382.113281 272.875 381.675781 270.835938 381.527344 268.796875 C 381.480469 268.148438 381.675781 267.15625 381.675781 266.34375 C 381.6875 265.507812 381.554688 264.757812 381.332031 264.1875 C 380.695312 262.558594 378.859375 261.742188 377.230469 262.382812 C 375.679688 262.984375 374.871094 264.667969 375.332031 266.226562 Z M 375.332031 266.226562 " fill-opacity="1" fill-rule="evenodd"/><g clip-path="url(#bb4f0de1aa)"><path fill="#e0c26f" d="M 182.082031 449.414062 C 185.359375 465.199219 192.804688 481.390625 206.316406 490.847656 C 214.84375 496.824219 225.613281 499.269531 236.765625 499.132812 C 253.074219 498.925781 270.1875 493.1875 281.902344 485.433594 C 289.429688 480.449219 294.320312 473.023438 299.394531 465.855469 C 303.90625 459.496094 308.554688 453.328125 316.136719 450.0625 C 329.230469 444.402344 343.519531 445.414062 357.046875 441.6875 C 367.425781 438.835938 376.75 433.058594 384.347656 425.503906 C 387.019531 422.84375 391.246094 418.566406 393.90625 414.023438 C 396.019531 410.421875 397.121094 406.632812 396.441406 403.183594 C 395.558594 398.65625 391.273438 397.734375 387.570312 398.402344 C 382.84375 399.25 378.355469 400.585938 373.519531 400.929688 C 361.964844 401.742188 352.734375 398.683594 344.691406 390.117188 C 337.390625 382.335938 331.234375 372.425781 324.277344 363.429688 C 316.902344 353.890625 308.625 345.359375 297.542969 340.910156 C 288.363281 337.226562 278.925781 338.25 269.539062 339.257812 C 261.253906 340.152344 253.011719 341.074219 245.125 337.347656 C 236.296875 333.183594 230.339844 325.53125 223.796875 318.789062 C 216.460938 311.234375 208.464844 304.746094 196.253906 303.835938 C 187.757812 303.203125 180.683594 306.316406 173.742188 309.78125 C 167.722656 312.796875 161.839844 316.117188 154.871094 316.417969 C 147.714844 316.722656 140.757812 313.628906 133.851562 312.191406 C 121.757812 309.65625 109.113281 308.746094 97.460938 313.679688 C 86.820312 318.183594 80.0625 326.34375 73.707031 334.945312 C 67.921875 342.777344 62.507812 351 54.039062 356.433594 C 46.648438 361.179688 36.820312 363.328125 28.4375 360.199219 C 23.984375 358.527344 20.175781 355.8125 16.277344 353.15625 C 15.367188 352.542969 14.320312 351.886719 13.328125 351.542969 C 12.089844 351.109375 10.882812 351.082031 9.796875 351.453125 C 8.632812 351.847656 7.453125 352.699219 6.667969 354.566406 C 3.742188 361.480469 4.582031 368.753906 7.722656 375.316406 C 12.199219 384.703125 21.441406 392.535156 30.132812 395.40625 C 39.203125 398.394531 48.699219 398.988281 58.128906 399.890625 C 66.929688 400.738281 75.675781 401.851562 83.851562 405.929688 C 97.804688 412.886719 108.417969 425.476562 120.703125 434.808594 C 138.246094 448.132812 160.367188 454.386719 182.082031 449.414062 Z M 188.320312 447.679688 C 193.039062 446.128906 197.597656 444.050781 201.777344 441.351562 C 207.742188 437.5 212.824219 432.398438 216.667969 426.433594 C 228.03125 408.800781 225.765625 385.371094 210.53125 370.675781 C 201.894531 362.355469 189.140625 357.5 176.605469 357.328125 C 163.851562 357.15625 151.386719 361.796875 143.554688 372.246094 C 139.328125 377.878906 137.199219 384.65625 137.308594 391.6875 C 137.390625 397.527344 138.886719 403.347656 141.46875 408.574219 C 145.972656 417.699219 154.816406 425.984375 165.511719 426.371094 C 174.210938 426.679688 180.792969 422.253906 183.925781 416.144531 C 187.046875 410.027344 186.777344 402.101562 181.488281 395.261719 C 177.707031 390.359375 173.816406 388.917969 169.175781 386.117188 C 167.652344 385.199219 165.664062 385.695312 164.746094 387.21875 C 163.824219 388.746094 164.320312 390.730469 165.847656 391.652344 C 169.761719 394.015625 173.175781 395.0625 176.378906 399.207031 C 179.925781 403.800781 180.269531 409.097656 178.175781 413.203125 C 176.070312 417.308594 171.578125 420.125 165.738281 419.917969 C 157.40625 419.621094 150.765625 412.824219 147.253906 405.722656 C 145.097656 401.34375 143.832031 396.46875 143.761719 391.589844 C 143.679688 385.992188 145.359375 380.605469 148.726562 376.109375 C 155.285156 367.355469 165.820312 363.636719 176.515625 363.78125 C 187.417969 363.933594 198.535156 368.085938 206.046875 375.324219 C 219.058594 387.871094 220.945312 407.886719 211.234375 422.941406 C 207.886719 428.140625 203.464844 432.570312 198.273438 435.929688 C 193.101562 439.269531 187.289062 441.515625 181.316406 442.960938 C 161.269531 447.796875 140.808594 441.976562 124.609375 429.664062 C 112 420.097656 101.042969 407.292969 86.730469 400.152344 C 77.824219 395.710938 68.328125 394.386719 58.742188 393.464844 C 49.789062 392.609375 40.765625 392.113281 32.152344 389.269531 C 26.125 387.28125 19.808594 382.382812 15.699219 376.289062 C 12.027344 370.839844 10.085938 364.386719 12.179688 358.203125 C 12.351562 358.3125 12.523438 358.417969 12.652344 358.5 C 16.984375 361.441406 21.234375 364.394531 26.179688 366.246094 C 36.421875 370.082031 48.480469 367.671875 57.535156 361.867188 C 66.667969 355.992188 72.652344 347.238281 78.894531 338.78125 C 84.574219 331.089844 90.476562 323.65625 99.980469 319.621094 C 110.402344 315.214844 121.710938 316.246094 132.535156 318.511719 C 139.945312 320.054688 147.460938 323.195312 155.140625 322.867188 C 163.046875 322.527344 169.800781 318.96875 176.632812 315.558594 C 182.550781 312.597656 188.535156 309.738281 195.773438 310.269531 C 206.207031 311.046875 212.894531 316.832031 219.167969 323.292969 C 226.242188 330.578125 232.832031 338.679688 242.363281 343.183594 C 251.371094 347.4375 260.765625 346.703125 270.222656 345.683594 C 278.574219 344.78125 286.984375 343.636719 295.132812 346.902344 C 305.152344 350.917969 312.507812 358.753906 319.167969 367.382812 C 326.253906 376.542969 332.542969 386.613281 339.980469 394.539062 C 349.476562 404.648438 360.339844 408.320312 373.96875 407.363281 C 379.050781 407.011719 383.753906 405.648438 388.71875 404.746094 C 389.113281 404.683594 389.800781 404.683594 390.152344 404.703125 C 390.421875 406.652344 389.53125 408.726562 388.339844 410.757812 C 385.972656 414.800781 382.175781 418.566406 379.800781 420.921875 C 372.984375 427.707031 364.636719 432.90625 355.332031 435.46875 C 341.515625 439.277344 326.949219 438.355469 313.582031 444.132812 C 304.855469 447.898438 299.320312 454.800781 294.132812 462.121094 C 289.511719 468.644531 285.1875 475.515625 278.335938 480.046875 C 267.535156 487.203125 251.730469 492.492188 236.6875 492.671875 C 226.929688 492.796875 217.480469 490.785156 210.023438 485.558594 C 197.722656 476.949219 191.214844 462.046875 188.320312 447.679688 Z M 188.320312 447.679688 " fill-opacity="1" fill-rule="evenodd"/></g><path fill="#e0c26f" d="M 222.183594 396.578125 C 221.902344 396.605469 221.613281 396.660156 221.332031 396.757812 C 218.390625 397.804688 219.203125 400.578125 219.277344 400.804688 C 219.429688 401.28125 220.117188 403.183594 222.535156 403.050781 C 222.644531 403.050781 223.355469 402.898438 223.636719 402.871094 C 224.167969 402.816406 224.691406 402.789062 225.222656 402.777344 C 226.875 402.753906 228.527344 402.914062 230.160156 403.167969 C 235.59375 404.015625 240.863281 406.019531 245.621094 408.746094 C 258.257812 416.011719 264.664062 429.78125 259.527344 443.789062 C 256.324219 452.554688 248.652344 459.558594 239.375 461.28125 C 228.824219 463.25 220.785156 454.222656 221.515625 443.960938 C 221.785156 440.242188 223.273438 436.253906 226.777344 434.546875 C 233.238281 431.398438 240.304688 437.320312 238.734375 444.105469 C 238.335938 445.839844 239.421875 447.570312 241.152344 447.976562 C 242.894531 448.375 244.628906 447.292969 245.023438 445.558594 C 247.785156 433.601562 235.324219 423.203125 223.949219 428.746094 C 218.355469 431.46875 215.503906 437.5625 215.078125 443.5 C 214.050781 457.976562 225.683594 470.40625 240.558594 467.636719 C 252.066406 465.488281 261.613281 456.867188 265.59375 446.011719 C 271.859375 428.917969 264.257812 412.011719 248.84375 403.148438 C 243.402344 400.027344 237.363281 397.753906 231.152344 396.785156 C 229.160156 396.480469 227.128906 396.289062 225.105469 396.328125 C 224.421875 396.34375 223.726562 396.378906 223.039062 396.445312 C 222.878906 396.453125 222.472656 396.535156 222.183594 396.578125 Z M 222.183594 396.578125 " fill-opacity="1" fill-rule="evenodd"/><path fill="#e0c26f" d="M 439.714844 524.039062 C 440.792969 525.007812 442.460938 524.917969 443.429688 523.839844 C 444.390625 522.761719 444.300781 521.101562 443.222656 520.132812 C 442.019531 519.046875 441.382812 517.023438 440.507812 515.695312 C 438.160156 512.128906 435.554688 508.714844 432.121094 506.117188 C 429.699219 504.289062 426.96875 502.925781 424.085938 502.007812 C 421.296875 501.128906 417.90625 500.730469 415.09375 499.621094 C 413.097656 498.835938 411.449219 497.613281 411.109375 494.992188 C 410.992188 494.066406 411.035156 493.128906 411.199219 492.21875 C 411.394531 491.152344 411.753906 490.121094 412.253906 489.164062 C 413.164062 487.402344 414.484375 485.890625 415.984375 484.601562 C 417.914062 482.941406 420.128906 481.613281 422.449219 480.570312 C 426.066406 478.941406 429.960938 477.960938 433.894531 477.46875 C 438.453125 476.902344 443.085938 477.4375 447.699219 477.871094 C 452.765625 478.339844 457.804688 478.6875 462.746094 477.6875 C 467.285156 476.769531 470.40625 474.019531 473.144531 470.722656 C 475.394531 468.007812 477.355469 464.890625 480.027344 462.613281 C 488.105469 455.722656 500.441406 457.332031 509.417969 461.683594 C 521.710938 467.640625 529.21875 481.671875 524.140625 494.984375 C 519.183594 507.96875 502.160156 513.074219 492.136719 502.667969 C 490.023438 500.472656 488.457031 497.765625 487.761719 494.792969 C 487.234375 492.554688 487.175781 490.179688 487.820312 487.953125 C 489.816406 481.09375 498.769531 477.136719 504.757812 481.636719 C 508.175781 484.210938 508.242188 489.523438 504.347656 491.542969 C 503.054688 492.203125 502.554688 493.789062 503.214844 495.082031 C 503.882812 496.363281 505.46875 496.871094 506.753906 496.203125 C 514.152344 492.378906 514.402344 482.320312 507.914062 477.4375 C 499.070312 470.789062 485.730469 476.351562 482.777344 486.488281 C 481.882812 489.582031 481.921875 492.878906 482.652344 495.996094 C 483.5625 499.886719 485.589844 503.4375 488.355469 506.316406 C 501.074219 519.519531 522.757812 513.332031 529.042969 496.855469 C 535.109375 480.953125 526.390625 464.074219 511.707031 456.957031 C 500.992188 451.769531 486.277344 450.386719 476.621094 458.621094 C 473.722656 461.085938 471.550781 464.425781 469.097656 467.378906 C 467.132812 469.746094 464.984375 471.882812 461.703125 472.542969 C 457.269531 473.4375 452.734375 473.0625 448.191406 472.640625 C 443.195312 472.175781 438.183594 471.640625 433.242188 472.257812 C 428.796875 472.816406 424.394531 473.945312 420.296875 475.78125 C 417.515625 477.027344 414.875 478.632812 412.554688 480.625 C 410.550781 482.347656 408.804688 484.394531 407.585938 486.757812 C 406.851562 488.175781 406.316406 489.707031 406.03125 491.277344 C 405.773438 492.71875 405.714844 494.199219 405.90625 495.660156 C 406.53125 500.5625 409.429688 503.027344 413.164062 504.503906 C 416.085938 505.65625 419.601562 506.09375 422.5 507.011719 C 424.816406 507.746094 427.011719 508.839844 428.957031 510.308594 C 431.90625 512.539062 434.101562 515.519531 436.128906 518.585938 C 437.21875 520.25 438.203125 522.679688 439.714844 524.039062 Z M 439.714844 524.039062 " fill-opacity="1" fill-rule="evenodd"/><path fill="#e0c26f" d="M 494.628906 508.839844 C 495.277344 508.210938 495.585938 507.253906 495.34375 506.316406 C 495.0625 505.183594 494.375 504.761719 493.910156 504.539062 C 493.199219 504.195312 492.398438 504.121094 491.535156 504.570312 C 491.320312 504.679688 491.078125 504.839844 490.835938 505.089844 C 490.703125 505.230469 490.328125 505.832031 490.175781 506.089844 C 489.859375 506.46875 489.523438 506.835938 489.199219 507.203125 C 488.28125 508.253906 487.34375 509.257812 486.265625 510.140625 C 482.851562 512.949219 478.726562 514.835938 474.421875 515.769531 C 469.621094 516.800781 464.734375 517.207031 459.832031 517.183594 C 454.519531 517.15625 448.367188 516.832031 443.472656 519.328125 C 439.605469 521.292969 436.839844 524.632812 434.144531 528.097656 C 431.898438 530.980469 429.714844 533.976562 426.542969 535.824219 C 419.609375 539.867188 411.777344 538.863281 404.425781 536.492188 C 399.949219 535.046875 394.972656 532.425781 390.144531 532.707031 C 385.703125 532.96875 383.296875 535.5 382.238281 538.871094 C 380.933594 543.050781 382.054688 548.804688 383.816406 552.183594 C 388.050781 560.269531 395.976562 566.042969 403.953125 570.042969 C 420.429688 578.316406 439.214844 578.945312 456.148438 585.785156 C 464.929688 589.335938 471.699219 595.265625 478.234375 601.503906 C 485.125 608.078125 491.777344 615.007812 499.980469 620.195312 C 503.839844 622.632812 507.964844 624.644531 512.214844 626.292969 C 521.8125 630.03125 533.664062 632.863281 544.921875 632.503906 C 556.605469 632.128906 567.640625 628.335938 575.179688 618.859375 C 578.898438 614.191406 581.4375 608.683594 583.15625 602.996094 C 585.070312 596.652344 586.003906 589.996094 585.902344 583.371094 C 585.578125 561.742188 573.878906 538.238281 550.382812 535.046875 C 522.371094 531.238281 499.238281 561.179688 511.992188 587.027344 C 514.136719 591.378906 517.261719 595.195312 521.128906 598.121094 C 524.585938 600.726562 528.644531 602.605469 532.921875 603.359375 C 536.785156 604.042969 540.8125 603.824219 544.539062 602.589844 C 553.375 599.671875 560.199219 590.488281 557.066406 580.980469 C 554.074219 571.878906 542.324219 566.601562 534.757812 573.902344 C 533.714844 574.910156 533.6875 576.574219 534.691406 577.617188 C 535.699219 578.660156 537.363281 578.6875 538.40625 577.683594 C 543.101562 573.140625 550.21875 576.964844 552.085938 582.613281 C 554.285156 589.316406 549.113281 595.554688 542.890625 597.609375 C 539.984375 598.570312 536.847656 598.722656 533.832031 598.1875 C 530.371094 597.578125 527.089844 596.042969 524.292969 593.929688 C 521.078125 591.503906 518.480469 588.316406 516.699219 584.707031 C 505.777344 562.566406 525.679688 536.984375 549.675781 540.25 C 570.503906 543.074219 580.367188 564.277344 580.652344 583.453125 C 580.75 589.542969 579.890625 595.648438 578.136719 601.476562 C 576.609375 606.53125 574.378906 611.441406 571.070312 615.59375 C 564.539062 623.808594 554.886719 626.933594 544.753906 627.253906 C 534.207031 627.59375 523.113281 624.898438 514.121094 621.398438 C 510.179688 619.875 506.363281 618.015625 502.789062 615.757812 C 494.878906 610.757812 488.503906 604.042969 481.855469 597.703125 C 474.84375 591.011719 467.535156 584.730469 458.113281 580.921875 C 441.316406 574.132812 422.652344 573.558594 406.308594 565.355469 C 399.28125 561.824219 392.199219 556.871094 388.46875 549.746094 C 387.421875 547.742188 386.648438 544.558594 386.964844 541.828125 C 387.191406 539.851562 388.082031 538.089844 390.453125 537.945312 C 394.65625 537.703125 398.914062 540.226562 402.808594 541.488281 C 411.585938 544.316406 420.914062 545.179688 429.183594 540.359375 C 432.941406 538.164062 435.628906 534.738281 438.292969 531.316406 C 440.5 528.472656 442.671875 525.617188 445.851562 524 C 450.019531 521.886719 455.289062 522.410156 459.800781 522.429688 C 465.09375 522.460938 470.355469 522.011719 475.527344 520.898438 C 480.652344 519.796875 485.539062 517.535156 489.601562 514.199219 C 490.894531 513.125 492.039062 511.929688 493.148438 510.667969 C 493.550781 510.207031 493.96875 509.75 494.351562 509.273438 C 494.417969 509.191406 494.527344 509.015625 494.628906 508.839844 Z M 490.652344 508.464844 C 490.492188 508.253906 490.351562 507.972656 490.257812 507.601562 C 490.335938 507.921875 490.476562 508.214844 490.652344 508.464844 Z M 490.652344 508.464844 " fill-opacity="1" fill-rule="evenodd"/><g clip-path="url(#8279e77b8e)"><path fill="#e0c26f" d="M 531.601562 490.492188 C 531.726562 490.492188 531.84375 490.5 531.96875 490.5 C 533.839844 490.53125 535.609375 490.964844 537.371094 491.574219 C 544.226562 493.949219 550.691406 496.195312 557.925781 493.722656 C 564.308594 491.542969 569.175781 486.765625 574.585938 482.957031 C 583.339844 476.785156 593.328125 472.644531 604.035156 475.773438 C 609.78125 477.445312 614.902344 480.578125 619.703125 484.085938 C 624.441406 487.550781 629.023438 491.574219 634.777344 493.261719 C 641.425781 495.203125 648.152344 494.257812 654.90625 493.046875 C 660.945312 491.960938 667 490.648438 673.039062 491.71875 C 679.914062 492.945312 685.359375 496.730469 690.601562 500.914062 C 696.300781 505.480469 701.761719 510.511719 708.175781 513.835938 C 711.933594 515.78125 715.382812 515.90625 718.839844 515.335938 C 721.789062 514.84375 724.746094 513.785156 727.96875 513.164062 C 731.453125 512.488281 735.035156 512.488281 738.476562 513.417969 C 745.492188 515.304688 750.644531 520.015625 755.347656 525.335938 C 760.449219 531.113281 765.019531 537.609375 770.453125 542.566406 C 778.972656 550.347656 788.300781 549.136719 798.617188 546.664062 C 799.800781 546.378906 801.625 545.839844 803.203125 545.886719 C 803.660156 545.898438 804.164062 545.871094 804.21875 546.414062 C 804.40625 548.527344 803.777344 550.730469 802.816406 552.871094 C 801.179688 556.503906 798.542969 559.929688 796.402344 562.476562 C 791.835938 567.894531 786.097656 572.339844 779.492188 574.984375 C 766.035156 580.347656 750.984375 579.796875 737.523438 585.351562 C 729.421875 588.691406 723.617188 594.5625 718.246094 600.976562 C 713.253906 606.929688 708.644531 613.355469 702.554688 618.265625 C 687.261719 630.609375 660.84375 637.058594 642.402344 628.671875 C 634.359375 625.011719 627.90625 618.164062 623.128906 610.859375 C 616.320312 600.449219 611.609375 586.878906 613.574219 574.367188 C 617.140625 551.660156 639.984375 534.886719 662.304688 543.96875 C 670.773438 547.417969 679.0625 554.65625 683.613281 563.210938 C 687.980469 571.421875 688.847656 580.90625 682.601562 589.292969 C 681.132812 591.265625 679.34375 592.984375 677.332031 594.421875 C 674.367188 596.535156 670.960938 598.011719 667.433594 598.886719 C 661.164062 600.441406 653.597656 600 648.375 595.855469 C 644.984375 593.160156 643.332031 588.464844 643.347656 583.847656 C 643.363281 579.285156 645.011719 574.703125 648.632812 572.203125 C 652.601562 569.449219 658.214844 569.734375 661.496094 573.398438 C 663.277344 575.386719 663.859375 577.910156 662.992188 579.921875 C 662.441406 581.191406 661.304688 582.183594 659.640625 582.679688 C 658.253906 583.09375 657.460938 584.558594 657.878906 585.945312 C 658.289062 587.332031 659.757812 588.125 661.144531 587.707031 C 664.503906 586.703125 666.699219 584.566406 667.808594 582.011719 C 669.414062 578.300781 668.6875 573.558594 665.40625 569.898438 C 660.367188 564.261719 651.742188 563.652344 645.644531 567.886719 C 640.652344 571.34375 638.121094 577.53125 638.101562 583.824219 C 638.078125 590.070312 640.523438 596.324219 645.109375 599.964844 C 651.589844 605.109375 660.929688 605.90625 668.695312 603.984375 C 672.871094 602.949219 676.878906 601.195312 680.386719 598.695312 C 682.835938 596.949219 685.015625 594.839844 686.8125 592.425781 C 694.402344 582.234375 693.550781 570.71875 688.253906 560.746094 C 683.128906 551.125 673.800781 542.988281 664.285156 539.113281 C 638.773438 528.71875 612.460938 547.59375 608.386719 573.550781 C 606.230469 587.3125 611.25 602.28125 618.734375 613.738281 C 624.039062 621.855469 631.289062 629.382812 640.222656 633.449219 C 660.335938 642.59375 689.175781 635.804688 705.851562 622.355469 C 712.207031 617.222656 717.0625 610.5625 722.273438 604.34375 C 727.101562 598.582031 732.238281 593.210938 739.527344 590.203125 C 752.964844 584.65625 768 585.21875 781.4375 579.855469 C 788.84375 576.898438 795.292969 571.9375 800.414062 565.855469 C 802.828125 562.992188 805.757812 559.117188 807.601562 555.03125 C 808.949219 552.019531 809.707031 548.902344 809.441406 545.9375 C 809.148438 542.738281 807.292969 541.296875 804.855469 540.808594 C 802.507812 540.324219 799.300781 541.101562 797.390625 541.554688 C 788.851562 543.609375 781.046875 545.128906 773.996094 538.695312 C 768.691406 533.851562 764.257812 527.496094 759.28125 521.859375 C 753.894531 515.769531 747.878906 510.511719 739.84375 508.347656 C 735.621094 507.210938 731.234375 507.179688 726.964844 508.011719 C 724.378906 508.511719 721.964844 509.296875 719.589844 509.839844 C 716.644531 510.507812 713.769531 510.820312 710.589844 509.179688 C 704.476562 506.007812 699.3125 501.164062 693.875 496.8125 C 687.957031 492.085938 681.726562 487.941406 673.957031 486.554688 C 667.308594 485.371094 660.628906 486.683594 653.972656 487.882812 C 648.03125 488.953125 642.105469 489.9375 636.25 488.21875 C 631.085938 486.707031 627.054688 482.957031 622.804688 479.851562 C 617.507812 475.984375 611.84375 472.582031 605.503906 470.730469 C 593.195312 467.136719 581.628906 471.566406 571.554688 478.671875 C 566.554688 482.195312 562.136719 486.742188 556.230469 488.753906 C 550.183594 490.816406 544.820312 488.601562 539.085938 486.613281 C 536.789062 485.820312 534.492188 485.289062 532.050781 485.253906 C 531.160156 485.238281 530.214844 485.289062 529.363281 485.5625 C 529.105469 485.644531 528.535156 485.914062 528.042969 486.421875 C 527.535156 486.941406 527.140625 487.710938 527.058594 488.050781 C 526.808594 489.054688 527.132812 489.804688 527.515625 490.304688 C 527.949219 490.882812 528.652344 491.492188 529.949219 491.34375 C 530.613281 491.273438 531.183594 490.957031 531.601562 490.492188 Z M 531.265625 486.664062 C 530.738281 486.257812 530.0625 486.046875 529.355469 486.128906 C 530.238281 486.023438 530.839844 486.296875 531.265625 486.664062 Z M 531.265625 486.664062 " fill-opacity="1" fill-rule="evenodd"/></g><path fill="#e0c26f" d="M 555.421875 489.296875 C 555.371094 489.371094 555.328125 489.453125 555.285156 489.53125 C 554.09375 491.859375 556.320312 493.039062 556.464844 493.105469 C 556.757812 493.253906 558.34375 493.980469 559.636719 492.421875 C 559.671875 492.371094 559.820312 492.152344 559.957031 491.925781 C 560.054688 491.769531 560.148438 491.609375 560.195312 491.507812 C 560.378906 491.09375 560.5 490.65625 560.597656 490.214844 C 560.800781 489.269531 560.855469 488.292969 560.816406 487.332031 C 560.742188 485.042969 560.355469 482.757812 559.839844 480.535156 C 558.140625 473.21875 554.886719 466.195312 550.21875 460.296875 C 540.65625 448.222656 523.117188 442.035156 508.550781 448.699219 C 505.820312 449.949219 503.4375 451.839844 501.207031 453.828125 C 500.128906 454.792969 500.03125 456.457031 500.992188 457.535156 C 501.953125 458.621094 503.621094 458.71875 504.699219 457.75 C 506.542969 456.113281 508.476562 454.503906 510.738281 453.46875 C 523.125 447.804688 537.980469 453.285156 546.101562 463.554688 C 550.292969 468.851562 553.199219 475.15625 554.726562 481.722656 C 555.167969 483.617188 555.511719 485.554688 555.578125 487.5 C 555.59375 488.042969 555.578125 488.585938 555.46875 489.113281 C 555.453125 489.171875 555.4375 489.230469 555.421875 489.296875 Z M 560.171875 491.34375 C 560.332031 490.675781 560.222656 489.980469 559.886719 489.398438 C 560.136719 489.789062 560.40625 490.425781 560.171875 491.34375 Z M 560.171875 491.34375 " fill-opacity="1" fill-rule="evenodd"/><path fill="#e0c26f" d="M 615.417969 600.699219 C 615.703125 600.46875 615.9375 600.183594 616.113281 599.832031 C 616.523438 599.023438 616.40625 598.460938 616.371094 598.230469 C 616.246094 597.402344 615.820312 596.875 615.335938 596.515625 C 614.816406 596.132812 613.890625 595.65625 612.628906 596.265625 C 612.511719 596.324219 611.851562 596.84375 611.613281 597.078125 C 611.496094 597.195312 611.386719 597.3125 611.261719 597.425781 C 610.792969 597.84375 610.265625 598.1875 609.730469 598.511719 C 607.929688 599.597656 605.972656 600.410156 603.910156 600.835938 C 597.511719 602.179688 591.058594 600.902344 585.929688 596.828125 C 584.800781 595.925781 583.148438 596.117188 582.246094 597.253906 C 581.34375 598.386719 581.535156 600.042969 582.671875 600.941406 C 589.035156 605.996094 597.035156 607.640625 604.980469 605.980469 C 607.621094 605.421875 610.140625 604.394531 612.445312 603 C 613.25 602.515625 614.03125 601.980469 614.734375 601.359375 C 614.945312 601.175781 615.152344 600.96875 615.351562 600.769531 C 615.363281 600.757812 615.386719 600.726562 615.417969 600.699219 Z M 611.195312 599.1875 C 611.101562 598.839844 611.035156 598.253906 611.425781 597.476562 C 611.144531 598.027344 611.078125 598.628906 611.195312 599.1875 Z M 611.195312 599.1875 " fill-opacity="1" fill-rule="evenodd"/><path fill="#e0c26f" d="M 595.683594 470.582031 C 595.902344 472.015625 597.246094 472.992188 598.675781 472.769531 C 600.109375 472.542969 601.089844 471.199219 600.871094 469.769531 C 600.554688 467.789062 598.976562 465.792969 597.824219 464.214844 C 595.34375 460.800781 592.367188 457.699219 589.210938 454.910156 C 578.277344 445.257812 563.796875 439.695312 549.125 440.949219 C 542.835938 441.492188 535.226562 443.660156 530.914062 448.648438 C 529.957031 449.742188 530.082031 451.402344 531.175781 452.355469 C 532.269531 453.300781 533.929688 453.183594 534.875 452.082031 C 538.339844 448.089844 544.539062 446.617188 549.574219 446.183594 C 562.820312 445.046875 575.867188 450.136719 585.730469 458.84375 C 588.609375 461.382812 591.324219 464.199219 593.585938 467.304688 C 594.023438 467.914062 594.582031 468.582031 595.058594 469.292969 C 595.339844 469.710938 595.609375 470.128906 595.683594 470.582031 Z M 595.683594 470.582031 " fill-opacity="1" fill-rule="evenodd"/></g></g></g></svg>