<svg xmlns="http://www.w3.org/2000/svg" xmlns:xlink="http://www.w3.org/1999/xlink" width="1366" zoomAndPan="magnify" viewBox="0 0 1024.5 576" height="768" preserveAspectRatio="xMidYMid meet" version="1.0"><defs><filter x="0%" y="0%" width="100%" height="100%" id="24d6e9ba54"><feColorMatrix values="0 0 0 0 1 0 0 0 0 1 0 0 0 0 1 0 0 0 1 0" color-interpolation-filters="sRGB"/></filter><clipPath id="d36bf694cd"><path d="M 0 239 L 1024 239 L 1024 575.859375 L 0 575.859375 Z M 0 239 " clip-rule="nonzero"/></clipPath><mask id="64053982bf"><g filter="url(#24d6e9ba54)"><rect x="-102.45" width="1229.4" fill="#000000" y="-57.6" height="691.2" fill-opacity="0.97"/></g></mask><clipPath id="296564f889"><path d="M 658 6 L 1024 6 L 1024 336.859375 L 658 336.859375 Z M 658 6 " clip-rule="nonzero"/></clipPath><clipPath id="dae8830e46"><path d="M 674 32 L 1024 32 L 1024 336.859375 L 674 336.859375 Z M 674 32 " clip-rule="nonzero"/></clipPath><clipPath id="13b6c8fc57"><path d="M 1029.519531 10.058594 C 1029.519531 10.058594 999.183594 0.769531 979.757812 14.046875 C 974.316406 17.761719 966.953125 20.71875 963.339844 26.5 C 960.597656 30.894531 961.085938 36.511719 958.429688 40.863281 C 957.234375 42.824219 949.832031 46.875 950.0625 48.855469 C 950.175781 49.761719 958.691406 44.488281 958.882812 46.601562 C 959.734375 56.359375 941.347656 60.414062 941.429688 67.054688 C 941.4375 67.429688 946.273438 65.066406 946.566406 64.914062 C 949.582031 63.324219 956.398438 57.214844 959.90625 58.023438 C 962.035156 58.511719 968.035156 79.15625 967.09375 81.765625 C 965.027344 87.503906 937.476562 79.207031 928.105469 88.667969 C 923.820312 93 922.402344 99.546875 918.085938 103.589844 C 913.792969 107.613281 906.84375 107.277344 902.15625 111.085938 C 896.882812 115.375 898.933594 121.609375 895.785156 126.542969 C 893.140625 130.6875 888.160156 133.175781 885.347656 137.394531 C 882.285156 141.988281 884.160156 158.207031 881.414062 160.195312 C 880.273438 161.015625 878.308594 160.328125 877.121094 160.007812 C 871.253906 158.410156 866.558594 154.34375 860.613281 152.914062 C 854.402344 151.421875 800.53125 145.539062 800.316406 145.609375 C 777.242188 152.976562 769.089844 193.964844 757.507812 202.078125 C 745.523438 210.480469 734.636719 219.867188 722.714844 228.382812 C 721.359375 229.34375 704.371094 240.242188 704.84375 240.863281 C 705.429688 241.621094 707.125 241.078125 707.808594 240.890625 C 727.617188 235.457031 742.652344 221.183594 760.914062 212.59375 C 761.714844 212.21875 766.3125 209.261719 767.125 209.953125 C 767.773438 210.503906 761.242188 217.941406 760.761719 218.632812 C 754.472656 227.683594 750.078125 233.378906 739.960938 238.625 C 739.207031 239.015625 728.519531 244.460938 728.875 244.941406 C 730.910156 247.695312 754.433594 234.585938 756.398438 238.761719 C 756.75 239.496094 749.367188 244.660156 748.753906 245.164062 C 744.558594 248.648438 739.214844 256.984375 733.742188 258.0625 C 701.230469 264.484375 677.925781 283.355469 664.773438 315.261719 C 664.039062 317.03125 658.25 341.875 658.25 341.875 L 1033.761719 337.042969 Z M 1029.519531 10.058594 " clip-rule="evenodd"/></clipPath><clipPath id="09ff8bd636"><path d="M 300 250 L 737 250 L 737 336.859375 L 300 336.859375 Z M 300 250 " clip-rule="nonzero"/></clipPath><clipPath id="aac44311d7"><path d="M 300.066406 272 L 736.847656 272 L 736.847656 336.859375 L 300.066406 336.859375 Z M 300.066406 272 " clip-rule="nonzero"/></clipPath><clipPath id="ff300ad595"><path d="M 732.503906 261.855469 C 733.542969 264.386719 728.195312 258.132812 725.53125 257.484375 C 725.203125 257.40625 724.863281 257.339844 724.527344 257.28125 C 718.40625 256.144531 711.722656 257.003906 706.300781 260.167969 C 701.082031 263.214844 697.699219 269.929688 691.957031 271.910156 C 682.90625 275.019531 671.773438 267.351562 662.183594 268.0625 C 652.402344 268.792969 652.179688 275.65625 645.355469 278.90625 C 640.191406 281.359375 633.878906 279.707031 628.566406 282.183594 C 626.222656 283.269531 622.8125 287.65625 620.1875 287.460938 C 616.273438 287.175781 612.527344 278.269531 608.035156 276.714844 C 602.953125 274.972656 579.691406 276.5625 572.363281 272.867188 C 565.207031 269.253906 567.132812 260.007812 555.304688 259.96875 C 547.289062 259.933594 544.503906 266.234375 537.917969 267.957031 C 529.894531 270.050781 518.597656 267.894531 509.722656 270.808594 C 504.40625 272.558594 500.148438 279.390625 493.632812 277.84375 C 478.445312 274.226562 476.804688 250.953125 460.714844 250.113281 C 448.777344 249.492188 447.378906 259.417969 438.855469 262.679688 C 435.101562 264.117188 429.351562 259.484375 424.488281 260.816406 C 419.867188 262.085938 417.183594 266.613281 413.46875 267.964844 C 404.136719 271.367188 392.664062 269.847656 384.234375 273.285156 C 380.621094 274.757812 378.101562 278.933594 374.507812 279.929688 C 374.390625 279.964844 374.273438 279.992188 374.152344 280.007812 C 350.171875 282.90625 325.128906 242.1875 301.929688 267.421875 C 293.480469 276.609375 325.320312 352.632812 325.320312 352.632812 L 736.5625 341.714844 Z M 732.503906 261.855469 " clip-rule="evenodd"/></clipPath><clipPath id="fff532b7a2"><path d="M 3 25 L 429 25 L 429 336.859375 L 3 336.859375 Z M 3 25 " clip-rule="nonzero"/></clipPath><clipPath id="17b12cede7"><path d="M 3 37 L 289 37 L 289 336.859375 L 3 336.859375 Z M 3 37 " clip-rule="nonzero"/></clipPath><clipPath id="5f659816dd"><path d="M 3.308594 42.925781 C 3.609375 43.367188 5.695312 41.082031 5.863281 40.90625 C 13.773438 32.585938 27.867188 23.179688 39.742188 26.554688 C 47.273438 28.703125 46.128906 34.335938 50.550781 38.417969 C 53.859375 41.46875 58.617188 40.585938 62.042969 45.117188 C 63.773438 47.402344 63.035156 51.496094 64.910156 53.351562 C 68.335938 56.742188 74.058594 56.015625 76.808594 60.972656 C 82.605469 71.410156 76.027344 77.742188 88.007812 79.414062 C 92.570312 80.050781 97.335938 75.039062 101.347656 73.503906 C 107.710938 71.070312 114.972656 74.03125 120.863281 71.632812 C 135.828125 65.546875 139.714844 38.578125 165.246094 58.953125 C 174.574219 66.398438 174.503906 76.941406 179.652344 86.488281 C 181.746094 90.378906 187.433594 92.105469 190.121094 95.96875 C 195.699219 104.023438 198.191406 114.390625 203.949219 122.402344 C 212.097656 133.761719 229.207031 143.570312 239.777344 152.839844 C 244.097656 156.617188 273.28125 177.84375 274.371094 181.132812 C 274.390625 181.210938 269.589844 179.273438 269.199219 179.078125 C 264.722656 176.816406 260.25 174.558594 255.769531 172.300781 C 238.625 163.644531 221.21875 150.59375 202.40625 145.894531 C 201.429688 145.648438 196.398438 144.828125 195.917969 146.5625 C 195.855469 146.800781 201.101562 148.792969 201.457031 148.984375 C 206.203125 151.457031 210.777344 154.847656 213.136719 159.804688 C 215.488281 164.742188 212.390625 172.054688 215.308594 176.121094 C 219.160156 181.496094 228.757812 179.167969 230.621094 187.554688 C 232.058594 194.0625 224.523438 200.804688 228.382812 206.402344 C 232.296875 212.097656 259.007812 230.234375 259.179688 234.675781 C 259.277344 237.054688 254.964844 232.445312 252.914062 231.226562 C 249.320312 229.070312 240.027344 222.355469 235.605469 224.492188 C 231.878906 226.28125 246.210938 240.8125 248.589844 244.011719 C 253.585938 250.714844 278.117188 248.816406 288.527344 254.464844 C 293.601562 257.210938 302.390625 288.089844 326.28125 302.910156 C 344.15625 314 375.820312 307.882812 391.609375 319.011719 C 415.082031 335.550781 428.242188 350.242188 428.242188 350.242188 L 5.011719 353.003906 Z M 3.308594 42.925781 " clip-rule="evenodd"/></clipPath><clipPath id="99aeeed402"><path d="M 0 37 L 428 37 L 428 336.859375 L 0 336.859375 Z M 0 37 " clip-rule="nonzero"/></clipPath><clipPath id="60b69891fb"><path d="M 0 65 L 388 65 L 388 336.859375 L 0 336.859375 Z M 0 65 " clip-rule="nonzero"/></clipPath><clipPath id="e6443f39c0"><path d="M 427.195312 350.417969 C 427.195312 350.417969 407.015625 320.699219 404.921875 319.710938 C 401.003906 317.863281 394.535156 317.660156 391.28125 314.972656 C 383.078125 308.195312 387.648438 296.734375 373.894531 292.152344 C 357.601562 286.726562 334.898438 304.683594 321.265625 292.808594 C 318.089844 290.039062 317.589844 281.917969 314.769531 278.242188 C 311.015625 273.332031 305.710938 273.125 301.28125 269.859375 C 292.539062 263.417969 290.957031 252.25 278.757812 247.074219 C 249.070312 234.488281 228.84375 267.671875 224.125 267.75 C 211.351562 267.957031 205.753906 237.367188 199.023438 229.328125 C 189.925781 218.472656 174.734375 229.148438 166.460938 221.164062 C 160.261719 215.1875 165.160156 201.167969 162.390625 193.46875 C 160.855469 189.207031 154.8125 186.585938 153.964844 182.988281 C 151.953125 174.546875 159.285156 165.222656 152.289062 157.308594 C 146.113281 150.316406 134.246094 151.996094 128.550781 145.03125 C 123.863281 139.285156 131.042969 129.585938 123.605469 124.3125 C 113.097656 116.859375 93.628906 116.929688 82.585938 122.953125 C 80.039062 124.339844 78.070312 128.699219 75.539062 129.417969 C 69.640625 131.070312 63.605469 128.832031 57.808594 132.5625 C 55.597656 133.976562 52.546875 142.582031 51.871094 142.804688 C 50.796875 143.160156 46.191406 138.265625 45.320312 137.636719 C 42.039062 135.273438 36.953125 135.183594 34.015625 132.828125 C 33.039062 132.046875 34.664062 130.269531 35.089844 129.675781 C 39.960938 122.910156 46.246094 115.996094 48.226562 107.675781 C 49.734375 101.34375 42.445312 100.53125 42.046875 95.125 C 40.554688 75.015625 2.246094 37.929688 2.246094 37.929688 L 0.015625 352.726562 C 142.75 353.519531 285.554688 354.59375 427.195312 350.417969 Z M 427.195312 350.417969 " clip-rule="evenodd"/></clipPath><clipPath id="e3316e5052"><path d="M 652 91 L 1024 91 L 1024 336.859375 L 652 336.859375 Z M 652 91 " clip-rule="nonzero"/></clipPath><clipPath id="d14b378f15"><path d="M 748 212 L 1024 212 L 1024 336.859375 L 748 336.859375 Z M 748 212 " clip-rule="nonzero"/></clipPath><clipPath id="cc9e334df6"><path d="M 652.507812 343.820312 C 652.507812 343.820312 657.015625 332.78125 657.203125 331.847656 C 657.585938 329.945312 658.597656 328.175781 659.757812 326.640625 C 663.636719 321.488281 669.441406 319.117188 675.785156 318.796875 C 679.355469 318.605469 683.421875 320.414062 686.835938 319.875 C 693.28125 318.867188 695.429688 309.027344 700.742188 306.636719 C 704.878906 304.765625 710.929688 305.972656 714.527344 303.203125 C 718.128906 300.445312 719.992188 296.371094 724.316406 294.371094 C 738.859375 287.640625 742.234375 295.773438 754.046875 284.167969 C 758.351562 279.9375 756.824219 271.546875 760.195312 266.382812 C 766.117188 257.316406 776.5625 257.917969 784.164062 251.90625 C 789.480469 247.695312 790.367188 241.488281 797.796875 238.980469 C 817.214844 232.410156 825.078125 249.898438 833.8125 248.707031 C 837.265625 248.238281 840.777344 243.945312 843.867188 242.347656 C 847.214844 240.617188 851.152344 241.515625 854.089844 238.855469 C 863.792969 230.0625 855.339844 219.628906 860.96875 208.941406 C 867.457031 196.605469 879.722656 196.585938 888.746094 188.546875 C 889.671875 187.722656 887.609375 179.789062 888.730469 177.402344 C 891.144531 172.292969 897.046875 171.015625 899.796875 166.421875 C 908.910156 151.234375 900.929688 141.039062 925.046875 131.878906 C 936.492188 127.535156 955.601562 127.339844 961.574219 140.59375 C 963.472656 144.8125 962.160156 153.035156 964.847656 156.324219 C 967.191406 159.191406 973.847656 157.097656 977.140625 158.820312 C 981.921875 161.324219 982.6875 172.695312 990.257812 169.648438 C 993 168.546875 989.730469 147.882812 991.640625 141.863281 C 996.488281 126.566406 1001.769531 110.152344 1014.804688 99.839844 C 1016.472656 98.519531 1030.789062 91.882812 1030.789062 91.882812 L 1033.328125 336.171875 Z M 652.507812 343.820312 " clip-rule="evenodd"/></clipPath><clipPath id="bf45f2012b"><rect x="0" width="1024" y="0" height="337"/></clipPath></defs><g clip-path="url(#d36bf694cd)"><g mask="url(#64053982bf)"><g transform="matrix(1, 0, 0, 1, 0, 239)"><g clip-path="url(#bf45f2012b)"><g clip-path="url(#296564f889)"><path fill="#cee6f8" d="M 1029.519531 10.058594 C 1029.519531 10.058594 999.183594 0.769531 979.757812 14.046875 C 974.316406 17.761719 966.953125 20.71875 963.339844 26.5 C 960.597656 30.894531 961.085938 36.511719 958.429688 40.863281 C 957.234375 42.824219 949.832031 46.875 950.0625 48.855469 C 950.175781 49.761719 958.691406 44.488281 958.882812 46.601562 C 959.734375 56.359375 941.347656 60.414062 941.429688 67.054688 C 941.4375 67.429688 946.273438 65.066406 946.566406 64.914062 C 949.582031 63.324219 956.398438 57.214844 959.90625 58.023438 C 962.035156 58.511719 968.035156 79.15625 967.09375 81.765625 C 965.027344 87.503906 937.476562 79.207031 928.105469 88.667969 C 923.820312 93 922.402344 99.546875 918.085938 103.589844 C 913.792969 107.613281 906.84375 107.277344 902.15625 111.085938 C 896.882812 115.375 898.933594 121.609375 895.785156 126.542969 C 893.140625 130.6875 888.160156 133.175781 885.347656 137.394531 C 882.285156 141.988281 884.160156 158.207031 881.414062 160.195312 C 880.273438 161.015625 878.308594 160.328125 877.121094 160.007812 C 871.253906 158.410156 866.558594 154.34375 860.613281 152.914062 C 854.402344 151.421875 800.53125 145.539062 800.316406 145.609375 C 777.242188 152.976562 769.089844 193.964844 757.507812 202.078125 C 745.523438 210.480469 734.636719 219.867188 722.714844 228.382812 C 721.359375 229.34375 704.371094 240.242188 704.84375 240.863281 C 705.429688 241.621094 707.125 241.078125 707.808594 240.890625 C 727.617188 235.457031 742.652344 221.183594 760.914062 212.59375 C 761.714844 212.21875 766.3125 209.261719 767.125 209.953125 C 767.773438 210.503906 761.242188 217.941406 760.761719 218.632812 C 754.472656 227.683594 750.078125 233.378906 739.960938 238.625 C 739.207031 239.015625 728.519531 244.460938 728.875 244.941406 C 730.910156 247.695312 754.433594 234.585938 756.398438 238.761719 C 756.75 239.496094 749.367188 244.660156 748.753906 245.164062 C 744.558594 248.648438 739.214844 256.984375 733.742188 258.0625 C 701.230469 264.484375 677.925781 283.355469 664.773438 315.261719 C 664.039062 317.03125 658.25 341.875 658.25 341.875 L 1033.761719 337.042969 Z M 1029.519531 10.058594 " fill-opacity="1" fill-rule="evenodd"/></g><g clip-path="url(#dae8830e46)"><g clip-path="url(#13b6c8fc57)"><path fill="#8bcdef" d="M 1029.304688 33.808594 C 1030.007812 35.070312 1026.671875 32.414062 1025.230469 32.300781 C 1022.097656 32.0625 1019.164062 32.824219 1016.296875 34.03125 C 1015.726562 34.265625 995.359375 49.125 994.605469 49.835938 C 992.183594 52.109375 990.273438 54.640625 989.5625 57.960938 C 988.339844 63.621094 992.527344 67.8125 991.878906 73.070312 C 991.347656 77.394531 986.886719 80.273438 986.644531 84.9375 C 986.484375 87.964844 989.921875 92.246094 988.730469 94.980469 C 985.519531 102.320312 975.070312 105.109375 976.394531 114.992188 C 977.386719 122.382812 998.308594 123.425781 998.652344 126.964844 C 998.734375 127.835938 988.277344 127.660156 987.378906 127.757812 C 983.664062 128.191406 972.558594 133.097656 969.367188 131.613281 C 967.742188 130.859375 968.480469 124.445312 964.554688 122.773438 C 963.011719 122.117188 951.835938 121.628906 951.632812 120.820312 C 951.117188 118.707031 960.367188 116.878906 960.25 113.644531 C 959.949219 105.089844 933.519531 107.355469 928.539062 110.136719 C 918.582031 115.695312 938.117188 117.828125 937.300781 120.890625 C 936.40625 124.257812 925.601562 127.4375 922.898438 129.675781 C 918.613281 133.210938 906.214844 152.28125 903.238281 157.582031 C 899.140625 164.878906 899.9375 191.683594 897.984375 193.515625 C 886.332031 204.449219 869.117188 173.636719 853.941406 179.097656 C 849.75 180.609375 825.496094 190.191406 827.957031 194.675781 C 829.265625 197.050781 846.03125 200.042969 845.15625 202.957031 C 845.117188 203.097656 830.769531 202.238281 829.507812 202.378906 C 824.164062 202.964844 818.636719 204.109375 814.128906 207.164062 C 813.78125 207.394531 812.621094 208.453125 812.105469 208.082031 C 811.304688 207.503906 821.917969 198.328125 813.277344 198.054688 C 797.507812 197.5625 794.738281 211.910156 788.960938 222.46875 C 787.441406 225.242188 784.40625 227.117188 783.367188 230.152344 C 782.628906 232.292969 785.3125 239.371094 784.859375 239.746094 C 777.988281 245.457031 770.710938 253.015625 763.605469 258.167969 C 760.328125 260.546875 755.792969 260.726562 752.296875 263.328125 C 749.597656 265.335938 747.929688 268.570312 744.816406 270.070312 C 736.828125 273.90625 726.597656 268.046875 718.042969 271.285156 C 711.039062 273.933594 711.375 280.816406 706.15625 285.089844 C 701.4375 288.960938 695.375 290.765625 690.695312 294.851562 C 675.796875 307.863281 669.417969 331.082031 677.960938 349.210938 C 682.699219 359.265625 953.691406 412.3125 1048.511719 322.929688 C 1124.769531 251.078125 1029.304688 33.808594 1029.304688 33.808594 Z M 1029.304688 33.808594 " fill-opacity="0.99" fill-rule="evenodd"/></g></g><g clip-path="url(#09ff8bd636)"><path fill="#cee6f8" d="M 732.503906 261.855469 C 733.542969 264.386719 728.195312 258.132812 725.53125 257.484375 C 725.203125 257.40625 724.863281 257.339844 724.527344 257.28125 C 718.40625 256.144531 711.722656 257.003906 706.300781 260.167969 C 701.082031 263.214844 697.699219 269.929688 691.957031 271.910156 C 682.90625 275.019531 671.769531 267.351562 662.183594 268.0625 C 652.402344 268.792969 652.179688 275.65625 645.355469 278.90625 C 640.191406 281.359375 633.878906 279.707031 628.566406 282.183594 C 626.222656 283.269531 622.8125 287.65625 620.1875 287.460938 C 616.273438 287.175781 612.527344 278.269531 608.035156 276.714844 C 602.953125 274.972656 579.691406 276.5625 572.363281 272.867188 C 565.207031 269.253906 567.132812 260.007812 555.304688 259.96875 C 547.289062 259.933594 544.503906 266.234375 537.917969 267.957031 C 529.894531 270.050781 518.597656 267.894531 509.722656 270.808594 C 504.40625 272.558594 500.148438 279.394531 493.632812 277.84375 C 478.445312 274.226562 476.804688 250.953125 460.714844 250.113281 C 448.777344 249.492188 447.378906 259.417969 438.855469 262.679688 C 435.101562 264.117188 429.351562 259.484375 424.488281 260.816406 C 419.867188 262.085938 417.183594 266.613281 413.46875 267.964844 C 404.136719 271.367188 392.664062 269.847656 384.234375 273.285156 C 380.621094 274.757812 378.101562 278.933594 374.507812 279.929688 C 374.390625 279.964844 374.273438 279.992188 374.152344 280.007812 C 350.171875 282.90625 325.128906 242.1875 301.929688 267.421875 C 293.480469 276.609375 325.320312 352.632812 325.320312 352.632812 L 736.5625 341.714844 Z M 732.503906 261.855469 " fill-opacity="0.99" fill-rule="evenodd"/></g><g clip-path="url(#aac44311d7)"><g clip-path="url(#ff300ad595)"><path fill="#8bcdef" d="M 693.960938 295.742188 C 694.035156 298.210938 689.785156 293.066406 687.511719 292.105469 C 683.492188 290.410156 679.300781 289.203125 674.996094 288.472656 C 664.082031 286.617188 661.507812 292.496094 653.105469 294.308594 C 649.464844 295.09375 645.082031 293.101562 641.238281 293.5 C 629.636719 294.71875 628.511719 307.027344 617.664062 310.09375 C 614.347656 311.035156 605.195312 300.234375 599.980469 299.675781 C 588.476562 298.449219 578.511719 307.011719 562.828125 300.804688 C 560.425781 299.859375 561.789062 292.304688 558.496094 290.265625 C 548.808594 284.261719 542.601562 294.238281 534.617188 293.539062 C 530.757812 293.207031 528.449219 288.964844 523.871094 289.816406 C 519.238281 290.683594 509.605469 301.636719 507.34375 301.476562 C 504.078125 301.238281 498.65625 293.792969 495.28125 292.214844 C 493.703125 291.484375 492.050781 291.183594 490.320312 291.128906 C 481.972656 290.847656 475.972656 297.230469 467.542969 295.535156 C 457.324219 293.476562 447.527344 282.789062 437.625 283.722656 C 424.292969 284.972656 404.644531 304.292969 395.246094 302.492188 C 390.003906 301.488281 386.335938 296.875 381.214844 295.296875 C 375.6875 293.597656 370.203125 295.644531 364.714844 294.175781 C 349.691406 290.144531 334.425781 282.804688 319.316406 280.019531 C 315.203125 279.265625 309.125 278.519531 305.328125 280.773438 C 288.199219 290.933594 297.347656 355.09375 299.167969 370.394531 C 300.332031 380.238281 584.597656 440.203125 700.699219 414.894531 C 744.070312 405.480469 764.429688 309.179688 747.976562 277.015625 C 739.835938 261.105469 693.960938 295.742188 693.960938 295.742188 Z M 693.960938 295.742188 " fill-opacity="0.99" fill-rule="evenodd"/></g></g><g clip-path="url(#fff532b7a2)"><path fill="#cee6f8" d="M 3.308594 42.925781 C 3.609375 43.367188 5.695312 41.082031 5.863281 40.90625 C 13.773438 32.585938 27.867188 23.179688 39.742188 26.554688 C 47.273438 28.703125 46.128906 34.335938 50.550781 38.417969 C 53.859375 41.46875 58.617188 40.585938 62.042969 45.117188 C 63.773438 47.402344 63.035156 51.496094 64.910156 53.351562 C 68.335938 56.742188 74.058594 56.015625 76.808594 60.972656 C 82.605469 71.410156 76.027344 77.742188 88.007812 79.414062 C 92.570312 80.050781 97.335938 75.039062 101.347656 73.503906 C 107.710938 71.070312 114.972656 74.03125 120.863281 71.632812 C 135.828125 65.546875 139.714844 38.578125 165.246094 58.949219 C 174.574219 66.398438 174.503906 76.941406 179.652344 86.488281 C 181.746094 90.378906 187.433594 92.105469 190.121094 95.96875 C 195.699219 104.023438 198.191406 114.390625 203.949219 122.402344 C 212.097656 133.761719 229.207031 143.570312 239.777344 152.839844 C 244.097656 156.617188 273.28125 177.84375 274.371094 181.132812 C 274.390625 181.210938 269.589844 179.273438 269.199219 179.078125 C 264.722656 176.816406 260.25 174.558594 255.769531 172.300781 C 238.625 163.644531 221.21875 150.59375 202.40625 145.894531 C 201.429688 145.648438 196.398438 144.828125 195.917969 146.5625 C 195.855469 146.800781 201.101562 148.792969 201.457031 148.984375 C 206.203125 151.457031 210.777344 154.847656 213.136719 159.804688 C 215.488281 164.742188 212.390625 172.054688 215.308594 176.121094 C 219.160156 181.496094 228.757812 179.167969 230.621094 187.554688 C 232.058594 194.0625 224.523438 200.804688 228.382812 206.402344 C 232.296875 212.097656 259.007812 230.234375 259.179688 234.675781 C 259.277344 237.054688 254.964844 232.445312 252.914062 231.226562 C 249.320312 229.070312 240.027344 222.355469 235.605469 224.488281 C 231.878906 226.28125 246.210938 240.8125 248.589844 244.015625 C 253.585938 250.714844 278.117188 248.816406 288.527344 254.464844 C 293.601562 257.210938 302.390625 288.089844 326.28125 302.910156 C 344.15625 314 375.820312 307.882812 391.609375 319.011719 C 415.082031 335.550781 428.242188 350.242188 428.242188 350.242188 L 5.011719 353.003906 Z M 3.308594 42.925781 " fill-opacity="0.99" fill-rule="evenodd"/></g><g clip-path="url(#17b12cede7)"><g clip-path="url(#5f659816dd)"><path fill="#8bcdef" d="M 12.523438 38.191406 C 17.90625 39.617188 25.300781 36.039062 31.816406 38.457031 C 45.457031 43.527344 62.148438 74.136719 61.902344 88.207031 C 61.839844 91.863281 69.210938 94.398438 71.917969 96.332031 C 73.777344 97.664062 79.136719 100.996094 76.84375 101.136719 C 73.863281 101.324219 70.675781 94.128906 66.851562 95.90625 C 64.023438 97.222656 65.28125 121.648438 71.371094 123.664062 C 89.667969 129.71875 91.898438 102.050781 98.554688 92.15625 C 100.960938 88.570312 104.359375 85.859375 108.359375 84.21875 C 114.882812 81.535156 121.691406 83.175781 128.015625 81.125 C 134.425781 79.039062 138.785156 72.046875 146.53125 73.699219 C 160.125 76.59375 148.101562 91.472656 149.53125 94.609375 C 149.554688 94.660156 152.433594 93.242188 152.625 93.160156 C 156.300781 91.5625 161.28125 90.832031 164.925781 93.011719 C 165.628906 93.429688 166.195312 94.011719 166.695312 94.652344 C 169.019531 97.601562 167.367188 101.46875 168.9375 104.027344 C 170.164062 106.042969 174.058594 105.527344 175.4375 108.441406 C 177.078125 111.921875 175.566406 116.042969 177.804688 119.242188 C 179.644531 121.871094 195.6875 129.855469 195.011719 132.554688 C 194.960938 132.738281 191.285156 130.8125 191.019531 130.6875 C 188.144531 129.265625 185.277344 127.792969 182.351562 126.476562 C 177.707031 124.390625 144.570312 116.140625 142.910156 120.394531 C 142.882812 120.472656 156.667969 126.796875 157.757812 127.625 C 163.816406 132.242188 162.460938 140.683594 167.136719 144.855469 C 172.488281 149.625 181.308594 148.542969 186.546875 154.03125 C 188.71875 156.3125 168.65625 148.808594 170.183594 154.429688 C 174.21875 169.25 185.464844 161.199219 194.046875 168.179688 C 197.585938 171.050781 197.613281 178.371094 200.585938 180.109375 C 204.464844 182.382812 215.257812 182.261719 216.222656 188.300781 C 216.578125 190.492188 211.183594 189.25 210.394531 190.199219 C 209.222656 191.605469 214.757812 201.65625 213.667969 202.003906 C 211.199219 202.796875 192.09375 188.699219 189.28125 191.871094 C 188.4375 192.832031 199.09375 199.902344 199.957031 200.554688 C 206.007812 205.0625 220.039062 214.210938 222.089844 221.960938 C 223.21875 226.246094 203.761719 217.558594 203.402344 221.992188 C 203.054688 226.324219 217.5 238.566406 220.113281 242.152344 C 223.527344 246.808594 225.820312 252.769531 230.058594 256.753906 C 239.28125 265.425781 251.714844 269.730469 260.933594 278.800781 C 275.0625 292.691406 300.226562 330.621094 283.28125 350.648438 C 271.328125 364.773438 221.90625 358.144531 206.152344 356.441406 C 135.25 348.785156 64.867188 336.179688 -6.632812 336.996094 C -66.554688 337.679688 12.523438 38.191406 12.523438 38.191406 Z M 12.523438 38.191406 " fill-opacity="0.99" fill-rule="evenodd"/></g></g><g clip-path="url(#99aeeed402)"><path fill="#ffffff" d="M 427.195312 350.417969 C 427.195312 350.417969 407.015625 320.699219 404.921875 319.710938 C 401.003906 317.863281 394.535156 317.660156 391.28125 314.972656 C 383.078125 308.199219 387.648438 296.734375 373.894531 292.152344 C 357.601562 286.726562 334.898438 304.683594 321.265625 292.808594 C 318.089844 290.039062 317.589844 281.917969 314.769531 278.242188 C 311.015625 273.332031 305.710938 273.125 301.28125 269.859375 C 292.539062 263.417969 290.957031 252.25 278.757812 247.074219 C 249.070312 234.488281 228.84375 267.671875 224.125 267.75 C 211.351562 267.957031 205.753906 237.367188 199.023438 229.328125 C 189.925781 218.472656 174.734375 229.148438 166.457031 221.164062 C 160.261719 215.1875 165.160156 201.167969 162.390625 193.46875 C 160.855469 189.207031 154.8125 186.585938 153.960938 182.988281 C 151.953125 174.542969 159.285156 165.222656 152.289062 157.308594 C 146.113281 150.316406 134.246094 151.996094 128.550781 145.027344 C 123.863281 139.285156 131.042969 129.585938 123.605469 124.3125 C 113.097656 116.859375 93.628906 116.929688 82.585938 122.953125 C 80.039062 124.339844 78.070312 128.699219 75.539062 129.417969 C 69.640625 131.070312 63.605469 128.832031 57.808594 132.5625 C 55.597656 133.976562 52.546875 142.582031 51.871094 142.804688 C 50.796875 143.160156 46.191406 138.265625 45.320312 137.636719 C 42.039062 135.273438 36.953125 135.183594 34.015625 132.828125 C 33.039062 132.046875 34.664062 130.269531 35.089844 129.675781 C 39.960938 122.910156 46.246094 115.996094 48.226562 107.675781 C 49.734375 101.34375 42.445312 100.527344 42.046875 95.125 C 40.554688 75.015625 2.246094 37.929688 2.246094 37.929688 L 0.015625 352.726562 C 142.75 353.519531 285.554688 354.59375 427.195312 350.417969 Z M 427.195312 350.417969 " fill-opacity="1" fill-rule="evenodd"/></g><g clip-path="url(#60b69891fb)"><g clip-path="url(#e6443f39c0)"><path fill="#daf1f9" d="M -9.984375 67.6875 C -9.117188 68.941406 -7.4375 65.882812 -5.949219 65.527344 C 2.023438 63.636719 19.410156 84.457031 22.300781 91.902344 C 26.320312 102.277344 15.167969 108.003906 15.714844 116.441406 C 16.078125 122.011719 19.726562 126.699219 19.574219 132.605469 C 19.441406 137.464844 15.328125 144.625 16.539062 149.109375 C 19.019531 158.367188 28.816406 162.347656 29.523438 173.625 C 29.578125 174.515625 29.578125 175.449219 29.257812 176.308594 C 26.652344 183.289062 15.21875 167.726562 12.65625 169.867188 C 12.359375 170.117188 15.832031 172.851562 16.0625 173.050781 C 19.054688 175.671875 21.820312 178.601562 24.296875 181.710938 C 30.113281 189.035156 28.886719 197.21875 32.800781 204.394531 C 33.703125 206.046875 33.058594 200.636719 33.199219 198.761719 C 33.492188 194.917969 34.679688 184.835938 40.003906 184.496094 C 46.394531 184.082031 47.050781 195.21875 50.65625 195.816406 C 51.695312 195.992188 56.59375 187.347656 58.367188 186.453125 C 61.527344 184.871094 69.132812 185.402344 72.832031 184.695312 C 90.097656 181.414062 102.246094 175.226562 113.046875 196.339844 C 124.511719 218.738281 93.007812 210.753906 81.363281 230.945312 C 80.875 231.804688 76.632812 238.519531 77.546875 239.398438 C 78.320312 240.136719 87.550781 231.300781 88.320312 230.714844 C 96.46875 224.523438 108.246094 218.285156 118.226562 224.316406 C 124.53125 228.128906 124.300781 234.34375 128.34375 239.328125 C 133.511719 245.714844 142.464844 241.496094 144.667969 253.246094 C 144.738281 253.636719 144.84375 258.195312 145.339844 258.203125 C 152.902344 258.285156 159.804688 237.257812 176.296875 248.59375 C 182.066406 252.5625 198.457031 275.765625 197.746094 282.699219 C 197.542969 284.644531 197.105469 287.167969 199.390625 287.996094 C 209.40625 291.636719 212.308594 281.988281 223.730469 283.324219 C 228.621094 283.898438 235.472656 290.605469 239.847656 289.363281 C 250.292969 286.394531 255.558594 276.445312 268.265625 278.195312 C 282.714844 280.1875 286.183594 292.152344 296.78125 298.832031 C 300.214844 300.996094 303.773438 295.039062 307.121094 298.484375 C 309.789062 301.222656 308.484375 313.726562 310.148438 314.417969 C 312.65625 315.457031 322.109375 309.996094 325.097656 309.527344 C 335.457031 307.917969 338.449219 315.523438 346.144531 316.648438 C 353.285156 317.695312 360.011719 310.183594 369.011719 312.589844 C 386.285156 317.207031 388.699219 345.675781 386.648438 359.960938 C 385.367188 368.914062 117.429688 461.75 1.515625 373.128906 C -67.378906 320.394531 -9.984375 67.6875 -9.984375 67.6875 Z M -9.984375 67.6875 " fill-opacity="0.99" fill-rule="evenodd"/></g></g><g clip-path="url(#e3316e5052)"><path fill="#ffffff" d="M 652.507812 343.820312 C 652.507812 343.820312 657.015625 332.78125 657.203125 331.847656 C 657.585938 329.945312 658.597656 328.175781 659.757812 326.640625 C 663.636719 321.488281 669.441406 319.117188 675.785156 318.796875 C 679.355469 318.605469 683.421875 320.414062 686.835938 319.875 C 693.28125 318.867188 695.429688 309.027344 700.742188 306.636719 C 704.878906 304.765625 710.929688 305.972656 714.527344 303.203125 C 718.128906 300.445312 719.992188 296.371094 724.316406 294.371094 C 738.859375 287.640625 742.234375 295.773438 754.046875 284.167969 C 758.351562 279.9375 756.824219 271.546875 760.195312 266.382812 C 766.117188 257.316406 776.5625 257.917969 784.164062 251.90625 C 789.480469 247.695312 790.363281 241.488281 797.796875 238.980469 C 817.214844 232.410156 825.078125 249.898438 833.8125 248.707031 C 837.265625 248.238281 840.777344 243.945312 843.867188 242.347656 C 847.214844 240.617188 851.152344 241.515625 854.089844 238.855469 C 863.792969 230.0625 855.335938 219.628906 860.96875 208.941406 C 867.457031 196.605469 879.722656 196.585938 888.746094 188.546875 C 889.671875 187.722656 887.609375 179.789062 888.730469 177.402344 C 891.144531 172.292969 897.046875 171.015625 899.796875 166.421875 C 908.910156 151.234375 900.929688 141.039062 925.046875 131.878906 C 936.492188 127.535156 955.601562 127.339844 961.574219 140.59375 C 963.472656 144.8125 962.160156 153.035156 964.847656 156.324219 C 967.191406 159.191406 973.847656 157.097656 977.140625 158.820312 C 981.921875 161.324219 982.6875 172.695312 990.257812 169.648438 C 993 168.546875 989.726562 147.882812 991.640625 141.863281 C 996.488281 126.566406 1001.769531 110.152344 1014.804688 99.839844 C 1016.472656 98.519531 1030.789062 91.882812 1030.789062 91.882812 L 1033.328125 336.171875 Z M 652.507812 343.820312 " fill-opacity="1" fill-rule="evenodd"/></g><g clip-path="url(#d14b378f15)"><g clip-path="url(#cc9e334df6)"><path fill="#daf1f9" d="M 748.390625 343.695312 C 749.597656 342.992188 755.882812 330.398438 756.148438 329.03125 C 756.761719 325.871094 758.21875 323.125 760.535156 320.886719 C 767.507812 314.160156 776.027344 318.738281 782.472656 314.617188 C 786.757812 311.871094 784.980469 304.660156 790.9375 301.691406 C 798.089844 298.128906 817.695312 302.171875 819.328125 299.90625 C 819.800781 299.246094 817.359375 298.238281 817.054688 298.101562 C 813.628906 296.554688 796.566406 295.09375 796.820312 290.101562 C 796.964844 287.285156 828.753906 272.816406 833.570312 271.4375 C 843.523438 268.59375 847.507812 277.699219 855.925781 278.714844 C 860.914062 279.316406 868 277.644531 872.160156 281.289062 C 875.949219 284.621094 873.808594 289.070312 873.703125 293.472656 C 873.695312 293.875 873.695312 298.5625 873.910156 298.457031 C 875.054688 297.917969 885.597656 278.878906 888.621094 275.800781 C 891.605469 272.75 895.109375 270.417969 898.988281 268.667969 C 900.957031 267.777344 906.453125 267.722656 904.960938 266.160156 C 902.625 263.710938 884.671875 271.917969 885.855469 262.078125 C 886.730469 254.792969 912.777344 232.960938 919.789062 235.785156 C 923.5625 237.3125 910.96875 248.53125 911.535156 250.804688 C 912.160156 253.34375 920.625 251.425781 922.71875 252.058594 C 925.765625 252.988281 927.859375 259.011719 930.296875 259.226562 C 932.195312 259.394531 936.246094 251.042969 937.480469 249.75 C 941.621094 245.421875 948.199219 244.054688 951.316406 238.777344 C 954.492188 233.402344 952.476562 225.851562 958.261719 221.792969 C 960.863281 219.964844 991.632812 216.394531 995.707031 217.230469 C 998.617188 217.824219 1002.566406 222.621094 1005 222.355469 C 1009.996094 221.828125 1016.878906 216.058594 1021.976562 214.398438 C 1027.992188 212.449219 1035.925781 210.328125 1040.996094 215.507812 C 1051.964844 226.695312 1048.972656 264.769531 1048.769531 279.335938 C 1048.511719 297.71875 1047.917969 316.078125 1046.515625 334.402344 C 1045.105469 352.730469 748.390625 343.695312 748.390625 343.695312 Z M 748.390625 343.695312 " fill-opacity="0.99" fill-rule="evenodd"/></g></g><path fill="#daf1f9" d="M 905.464844 208.597656 C 907.847656 206.5625 908.40625 202.910156 911.671875 200.914062 C 917.09375 197.609375 922.082031 199.972656 927.261719 197.960938 C 933.46875 195.539062 936.546875 189.1875 943.875 187.515625 C 950.007812 186.113281 955.589844 188.015625 961.433594 189.550781 C 961.804688 189.640625 963.417969 190.226562 963.730469 189.722656 C 964.023438 189.257812 956.175781 183.582031 955.476562 182.75 C 952.164062 178.820312 950.042969 170.0625 943.21875 171.484375 C 942.988281 171.53125 942.757812 171.59375 942.539062 171.671875 C 937.089844 173.597656 938.667969 178.894531 935.589844 182.136719 C 929.765625 188.273438 920.3125 193.664062 912.964844 197.921875 C 910.703125 199.234375 905.464844 208.597656 905.464844 208.597656 Z M 905.464844 208.597656 " fill-opacity="0.99" fill-rule="evenodd"/></g></g></g></g></svg>